<svg width="44" height="44" viewBox="0 0 44 44" fill="none" xmlns="http://www.w3.org/2000/svg">
<g clip-path="url(#clip0_236_649)">
<path d="M7.89648 22.8843H36.1036V26.064H7.89648V22.8843Z" fill="#ED6D09"/>
<path d="M22.0002 14.4436C25.444 14.4436 28.3023 16.9947 28.787 20.3062H33.9749C33.4661 14.1453 28.2901 9.28735 22.0002 9.28735C15.7102 9.28735 10.5342 14.1453 10.0254 20.3062H15.2133C15.698 16.9947 18.5563 14.4436 22.0002 14.4436Z" fill="#ED6D09"/>
<path d="M17.8359 20.3062H26.163C25.7122 18.4248 24.0171 17.0217 21.9995 17.0217C19.982 17.0217 18.2869 18.4247 17.8359 20.3062Z" fill="#ED6D09"/>
<path d="M20.7109 0H23.2891V3.86005H20.7109V0Z" fill="#ED6D09"/>
<path d="M12.0449 4.86328L13.8677 3.04055L16.5967 5.76961L14.774 7.59234L12.0449 4.86328Z" fill="#ED6D09"/>
<path d="M27.3984 5.771L30.1275 3.04194L31.9502 4.86467L29.2212 7.59373L27.3984 5.771Z" fill="#ED6D09"/>
<path d="M1.85938 43.9999H9.26091L10.1203 41.1655H33.8787L34.7381 43.9999H42.1397V37.814H1.85938V43.9999Z" fill="#ED6D09"/>
<path d="M41.4219 28.5562V25.7786H38.8438V28.5562H0.773438H0V35.3218H0.773438H44V28.5562H41.4219Z" fill="#ED6D09"/>
</g>
<defs>
<clipPath id="clip0_236_649">
<rect width="44" height="44" fill="white"/>
</clipPath>
</defs>
</svg>
