<svg width="44" height="44" viewBox="0 0 44 44" fill="none" xmlns="http://www.w3.org/2000/svg">
<g clip-path="url(#clip0_236_571)">
<path d="M43.6233 33.9893L38.8997 29.2651C38.4126 30.2903 37.4809 31.078 36.2989 31.3588L35.6554 31.5116L35.5025 32.1556C35.2413 33.2556 34.0129 35.3268 31.4273 35.1166L30.7672 35.063L30.423 35.628C29.8434 36.5791 28.8706 37.2291 27.7891 37.4219L33.9902 43.6224C34.3061 43.9383 34.7631 44.0681 35.1979 43.9654C35.6328 43.8628 35.9834 43.5423 36.1247 43.1185L37.8732 37.8722L43.1195 36.1236C43.5434 35.9824 43.8638 35.6317 43.9665 35.1969C44.0691 34.7621 43.9392 34.3051 43.6233 33.9893Z" fill="#ED6D09"/>
<path d="M13.5779 35.628L13.2337 35.063L12.5736 35.1166C9.98798 35.3268 8.75959 33.2556 8.49843 32.1556L8.34555 31.5116L7.70205 31.3588C6.51998 31.078 5.58833 30.2903 5.10123 29.2651L0.377594 33.9892C0.0616876 34.3051 -0.0681639 34.762 0.0345314 35.1969C0.137141 35.6317 0.457688 35.9824 0.881445 36.1236L6.12776 37.8722L7.87633 43.1185C8.01761 43.5424 8.36823 43.8628 8.80308 43.9654C9.23792 44.068 9.69485 43.9383 10.0108 43.6224L16.2119 37.4219C15.1303 37.2291 14.1575 36.5791 13.5779 35.628Z" fill="#ED6D09"/>
<path d="M28.2206 34.2865L29.3917 32.3649L31.6347 32.5471C32.2678 32.5984 32.8462 32.1795 32.9932 31.5601L33.5132 29.3705L35.7021 28.8507C36.3213 28.7036 36.7406 28.1265 36.689 27.4921L36.5068 25.2497L38.4283 24.0787C38.9717 23.7475 39.1922 23.0693 38.9473 22.4818L38.0813 20.405L39.5468 18.6976C39.9612 18.2147 39.9613 17.5015 39.5469 17.0186L38.0813 15.3106L38.9473 13.2336C39.1922 12.6462 38.9717 11.9679 38.4283 11.6367L36.5068 10.4657L36.689 8.22329C36.7405 7.5889 36.3213 7.01183 35.7021 6.86471L33.5132 6.34487L32.9932 4.15527C32.8461 3.53592 32.2678 3.11697 31.6347 3.16828L29.3917 3.35047L28.2206 1.4289C27.8894 0.885264 27.2108 0.665178 26.6236 0.910014L24.547 1.77644L22.8396 0.310857C22.3568 -0.103619 21.6434 -0.103619 21.1605 0.310857L19.4533 1.77626L17.3767 0.909842C16.7891 0.664834 16.1109 0.885178 15.7796 1.42873L14.6086 3.35029L12.3655 3.16811C11.7311 3.11732 11.1541 3.53575 11.0071 4.1551L10.4871 6.3447L8.29816 6.86471C7.67898 7.01183 7.25969 7.5889 7.31125 8.22329L7.49344 10.4657L5.57197 11.6367C5.0285 11.9679 4.80807 12.6462 5.05299 13.2336L5.9189 15.3106L4.45332 17.0186C4.03893 17.5015 4.03901 18.2147 4.45349 18.6976L5.9189 20.405L5.05316 22.4818C4.80824 23.0693 5.02867 23.7475 5.57214 24.0787L7.49361 25.2497L7.31143 27.4921C7.25995 28.1265 7.67915 28.7036 8.29833 28.8507L10.4872 29.3705L11.0073 31.5601C11.1544 32.1795 11.7314 32.5979 12.3657 32.5471L14.6087 32.3649L15.7798 34.2865C16.111 34.8301 16.7893 35.0504 17.3769 34.8054L19.4535 33.939L21.1607 35.4043C21.6436 35.8188 22.3569 35.8188 22.8398 35.4043L24.5471 33.939L26.6236 34.8054C27.2108 35.0502 27.8894 34.8301 28.2206 34.2865ZM21.5309 27.0537C21.0277 27.5571 20.2113 27.5573 19.7079 27.0537L12.1139 19.4597C11.6105 18.9564 11.6105 18.1401 12.1139 17.6367L16.0192 13.7313C16.5226 13.2279 17.3388 13.2279 17.8422 13.7313L20.6194 16.5084L26.8483 10.2794C27.3516 9.77601 28.1679 9.77601 28.6713 10.2794L32.5766 14.1848C33.08 14.6882 33.08 15.5043 32.5766 16.0078L21.5309 27.0537Z" fill="#ED6D09"/>
<path d="M21.5302 19.2428C21.0268 19.7463 20.2106 19.7463 19.7072 19.2428L16.93 16.4658L14.8477 18.5481L20.6187 24.3191L29.8415 15.0963L27.7592 13.0139L21.5302 19.2428Z" fill="#ED6D09"/>
</g>
<defs>
<clipPath id="clip0_236_571">
<rect width="44" height="44" fill="white"/>
</clipPath>
</defs>
</svg>
