<svg width="44" height="44" viewBox="0 0 44 44" fill="none" xmlns="http://www.w3.org/2000/svg">
<g clip-path="url(#clip0_236_658)">
<path d="M19.1564 15.0155H24.8428V5.37167H27.2941L21.9996 0.0771484L16.7051 5.37167H19.1564V15.0155Z" fill="#ED6D09"/>
<path d="M34.6682 15.0154H40.3546V11.058H42.8059L37.5113 5.76343L32.2168 11.058H34.6682V15.0154Z" fill="#ED6D09"/>
<path d="M3.64473 15.0154H9.33113V11.058H11.7825L6.48797 5.76343L1.19336 11.058H3.64473V15.0154Z" fill="#ED6D09"/>
<path d="M28.8924 34.8115H23.2891V43.9226C24.9339 43.1116 26.612 40.82 27.9646 37.4537C28.3009 36.6165 28.6106 35.7324 28.8924 34.8115Z" fill="#ED6D09"/>
<path d="M25.1429 21.5728L25.1293 21.579C24.5969 21.8222 23.9625 21.9902 23.2891 22.0836V32.2334H29.5856C30.3864 28.8166 30.8272 25.0533 30.837 21.3446C29.1095 20.7864 26.7032 20.8601 25.1564 21.5666L25.1429 21.5728Z" fill="#ED6D09"/>
<path d="M18.8562 21.5728L18.8427 21.5666C17.2959 20.8601 14.8895 20.7864 13.1621 21.3446C13.1719 25.0534 13.6127 28.8166 14.4134 32.2334H20.71V22.0836C20.0366 21.9902 19.4021 21.8222 18.8697 21.579L18.8562 21.5728Z" fill="#ED6D09"/>
<path d="M16.0353 37.4537C17.3879 40.82 19.0659 43.1116 20.7108 43.9226V34.8115H15.1074C15.3893 35.7324 15.6989 36.6165 16.0353 37.4537Z" fill="#ED6D09"/>
<path d="M30.3564 38.4148C29.5653 40.3839 28.67 42.03 27.6973 43.3305C32.7086 41.9904 37.0155 38.9266 39.9416 34.8115H31.5782C31.2184 36.0766 30.8103 37.2851 30.3564 38.4148Z" fill="#ED6D09"/>
<path d="M43.9858 21.5667C42.2575 20.7772 39.4555 20.7772 37.7273 21.5667L37.7137 21.5729L37.7001 21.5791C36.537 22.1105 34.8878 22.2836 33.4067 22.0998C33.3464 25.5421 32.9361 29.0157 32.2266 32.2336H41.5184C43.1026 29.195 43.9994 25.7411 43.9994 22.0772V21.5729L43.9858 21.5667Z" fill="#ED6D09"/>
<path d="M10.5927 22.0996C9.11152 22.2834 7.46238 22.1102 6.2993 21.5789L6.28573 21.5727L6.27215 21.5665C4.54386 20.777 1.74178 20.777 0.0135781 21.5665L0 21.5728V22.0771C0 25.7409 0.896758 29.1948 2.48102 32.2333H11.7728C11.0633 29.0155 10.653 25.5419 10.5927 22.0996Z" fill="#ED6D09"/>
<path d="M12.4219 34.8115H4.05859C6.98459 38.9266 11.2915 41.9904 16.3029 43.3305C15.3302 42.03 14.4349 40.3839 13.6437 38.4148C13.1898 37.2851 12.7817 36.0766 12.4219 34.8115Z" fill="#ED6D09"/>
</g>
<defs>
<clipPath id="clip0_236_658">
<rect width="44" height="44" fill="white"/>
</clipPath>
</defs>
</svg>
