<svg width="44" height="44" viewBox="0 0 44 44" fill="none" xmlns="http://www.w3.org/2000/svg">
<g clip-path="url(#clip0_236_639)">
<path d="M19.4219 0H1.28906C0.5775 0 0 0.5775 0 1.28906V19.4219C0 20.1334 0.5775 20.7109 1.28906 20.7109H19.4219C20.1334 20.7109 20.7109 20.1334 20.7109 19.4219V1.28906C20.7109 0.5775 20.1334 0 19.4219 0ZM16.8867 7.55648L9.46516 14.978C8.96156 15.4799 8.14808 15.482 7.64242 14.978L3.82422 11.1598C3.32063 10.6562 3.32063 9.83984 3.82422 9.33711C4.32781 8.83352 5.14422 8.83352 5.64695 9.33711L8.55336 12.2435L15.064 5.73289C15.5667 5.23016 16.3831 5.23016 16.8867 5.73289C17.3903 6.23648 17.3903 7.05289 16.8867 7.55648Z" fill="#ED6D09"/>
<path d="M20.7109 24.5781V42.7109C20.7109 43.4225 20.1334 44 19.4219 44H1.28906C0.5775 44 0 43.4225 0 42.7109V24.5781C0 23.8666 0.5775 23.2891 1.28906 23.2891H19.4219C20.1334 23.2891 20.7109 23.8666 20.7109 24.5781Z" fill="#ED6D09"/>
<path d="M44 1.28906V19.4219C44 20.1334 43.4225 20.7109 42.7109 20.7109H24.5781C23.8666 20.7109 23.2891 20.1334 23.2891 19.4219V1.28906C23.2891 0.5775 23.8666 0 24.5781 0H42.7109C43.4225 0 44 0.5775 44 1.28906Z" fill="#ED6D09"/>
<path d="M42.7109 23.2891H24.5781C23.8666 23.2891 23.2891 23.8666 23.2891 24.5781V42.7109C23.2891 43.4225 23.8666 44 24.5781 44H42.7109C43.4225 44 44 43.4225 44 42.7109V24.5781C44 23.8666 43.4225 23.2891 42.7109 23.2891ZM40.1758 30.8455L32.7542 38.2671C32.2525 38.7688 31.4353 38.771 30.9315 38.2671L27.1133 34.4489C26.6097 33.9453 26.6097 33.1289 27.1133 32.6262C27.6169 32.1226 28.4333 32.1226 28.936 32.6262L31.8424 35.5326L38.353 29.022C38.8558 28.5192 39.6722 28.5192 40.1758 29.022C40.6794 29.5255 40.6794 30.342 40.1758 30.8455Z" fill="#ED6D09"/>
</g>
<defs>
<clipPath id="clip0_236_639">
<rect width="44" height="44" fill="white"/>
</clipPath>
</defs>
</svg>
