<svg width="40" height="40" viewBox="0 0 40 40" fill="none" xmlns="http://www.w3.org/2000/svg">
<path d="M29.8675 9.25C29.807 9.19448 29.7581 9.12759 29.7235 9.05316C29.6889 8.97873 29.6693 8.89821 29.6658 8.8162C29.6624 8.7342 29.6751 8.65231 29.7032 8.57521C29.7314 8.49812 29.7745 8.42732 29.83 8.36688L31.375 6.6875C31.4871 6.56542 31.6432 6.49288 31.8088 6.48585C31.9744 6.47882 32.136 6.53786 32.2581 6.65C32.3802 6.76214 32.4527 6.91818 32.4598 7.0838C32.4668 7.24941 32.4078 7.41104 32.2956 7.53313L30.75 9.21125C30.638 9.33324 30.4821 9.40577 30.3166 9.41292C30.1512 9.42007 29.9896 9.36125 29.8675 9.24937V9.25ZM31.6331 29.83C31.5735 29.7702 31.5025 29.7231 31.4242 29.6915C31.3458 29.6599 31.262 29.6445 31.1775 29.6462C31.0931 29.6479 31.0099 29.6668 30.933 29.7015C30.8561 29.7363 30.787 29.7863 30.7299 29.8485C30.6728 29.9107 30.6289 29.9838 30.6008 30.0634C30.5728 30.1431 30.5612 30.2276 30.5667 30.3118C30.5722 30.3961 30.5947 30.4783 30.6328 30.5536C30.671 30.629 30.7241 30.6958 30.7887 30.75L32.4706 32.2937C32.594 32.3957 32.7517 32.4465 32.9114 32.4355C33.0711 32.4246 33.2205 32.3529 33.3288 32.2351C33.4371 32.1173 33.4962 31.9624 33.4937 31.8024C33.4913 31.6424 33.4275 31.4894 33.3156 31.375L31.6331 29.83ZM9.25 30.7887L7.70688 32.47C7.65139 32.5305 7.60836 32.6013 7.58024 32.6784C7.55213 32.7556 7.53948 32.8375 7.54302 32.9195C7.54656 33.0015 7.56622 33.082 7.60087 33.1564C7.63553 33.2308 7.6845 33.2976 7.745 33.3531C7.86705 33.4651 8.02854 33.524 8.19401 33.517C8.35948 33.5099 8.51539 33.4375 8.6275 33.3156L10.17 31.6337C10.229 31.574 10.2754 31.503 10.3064 31.4249C10.3373 31.3468 10.3523 31.2633 10.3502 31.1793C10.3482 31.0954 10.3292 31.0127 10.2945 30.9362C10.2598 30.8597 10.21 30.791 10.1482 30.7342C10.0863 30.6774 10.0136 30.6336 9.9345 30.6055C9.85534 30.5774 9.77134 30.5655 9.6875 30.5706C9.60366 30.5757 9.52171 30.5977 9.44654 30.6351C9.37137 30.6726 9.30453 30.7249 9.25 30.7887ZM8.36688 10.1706C8.42668 10.2295 8.49775 10.2758 8.57582 10.3066C8.6539 10.3375 8.73739 10.3523 8.82132 10.3502C8.90524 10.348 8.98787 10.329 9.06428 10.2942C9.1407 10.2595 9.20932 10.2097 9.26607 10.1478C9.32281 10.0859 9.36651 10.0133 9.39455 9.93415C9.4226 9.85502 9.43442 9.77106 9.4293 9.68726C9.42418 9.60347 9.40224 9.52157 9.36478 9.44644C9.32731 9.37131 9.2751 9.30451 9.21125 9.25L7.52938 7.70625C7.40544 7.60944 7.24957 7.56292 7.09285 7.57595C6.93613 7.58898 6.79008 7.66061 6.68384 7.77656C6.5776 7.8925 6.51897 8.04424 6.51965 8.20149C6.52032 8.35875 6.58026 8.50998 6.6875 8.625L8.36688 10.1706ZM37.5 19.375H35.2175C35.0517 19.375 34.8928 19.4408 34.7756 19.5581C34.6583 19.6753 34.5925 19.8342 34.5925 20C34.5925 20.1658 34.6583 20.3247 34.7756 20.4419C34.8928 20.5592 35.0517 20.625 35.2175 20.625H37.5C37.6658 20.625 37.8247 20.5592 37.9419 20.4419C38.0592 20.3247 38.125 20.1658 38.125 20C38.125 19.8342 38.0592 19.6753 37.9419 19.5581C37.8247 19.4408 37.6658 19.375 37.5 19.375ZM20 34.5925C19.8342 34.5925 19.6753 34.6583 19.5581 34.7756C19.4408 34.8928 19.375 35.0517 19.375 35.2175V37.5C19.375 37.6658 19.4408 37.8247 19.5581 37.9419C19.6753 38.0592 19.8342 38.125 20 38.125C20.1658 38.125 20.3247 38.0592 20.4419 37.9419C20.5592 37.8247 20.625 37.6658 20.625 37.5V35.2175C20.625 35.0517 20.5592 34.8928 20.4419 34.7756C20.3247 34.6583 20.1658 34.5925 20 34.5925ZM5.4075 20C5.4075 19.8342 5.34165 19.6753 5.22444 19.5581C5.10723 19.4408 4.94826 19.375 4.7825 19.375H2.5C2.33424 19.375 2.17527 19.4408 2.05806 19.5581C1.94085 19.6753 1.875 19.8342 1.875 20C1.875 20.1658 1.94085 20.3247 2.05806 20.4419C2.17527 20.5592 2.33424 20.625 2.5 20.625H4.7825C4.94826 20.625 5.10723 20.5592 5.22444 20.4419C5.34165 20.3247 5.4075 20.1658 5.4075 20ZM20 5.4075C20.1658 5.4075 20.3247 5.34165 20.4419 5.22444C20.5592 5.10723 20.625 4.94826 20.625 4.7825V2.5C20.625 2.33424 20.5592 2.17527 20.4419 2.05806C20.3247 1.94085 20.1658 1.875 20 1.875C19.8342 1.875 19.6753 1.94085 19.5581 2.05806C19.4408 2.17527 19.375 2.33424 19.375 2.5V4.7825C19.375 4.94826 19.4408 5.10723 19.5581 5.22444C19.6753 5.34165 19.8342 5.4075 20 5.4075ZM26.9306 33.5625C26.8613 33.4119 26.7351 33.295 26.5796 33.2375C26.4241 33.18 26.2522 33.1866 26.1016 33.2559C25.951 33.3252 25.8341 33.4515 25.7766 33.607C25.7191 33.7625 25.7257 33.9344 25.795 34.085L26.75 36.1581C26.8222 36.3039 26.9484 36.4158 27.1018 36.47C27.2552 36.5242 27.4236 36.5165 27.5714 36.4484C27.7192 36.3804 27.8346 36.2574 27.8932 36.1057C27.9517 35.9539 27.9488 35.7853 27.885 35.6356L26.9306 33.5625ZM5.91563 25.7956L3.84187 26.75C3.71251 26.8097 3.60742 26.9118 3.54402 27.0394C3.48062 27.167 3.46272 27.3124 3.49328 27.4516C3.52384 27.5907 3.60102 27.7153 3.71205 27.8045C3.82308 27.8938 3.96128 27.9425 4.10375 27.9425C4.19379 27.9427 4.28276 27.923 4.36437 27.885L6.4375 26.9306C6.58327 26.8584 6.69514 26.7322 6.74935 26.5788C6.80356 26.4255 6.79583 26.257 6.7278 26.1092C6.65978 25.9614 6.53682 25.846 6.38504 25.7875C6.23327 25.7289 6.06465 25.7318 5.915 25.7956H5.91563ZM13.0694 6.4375C13.1194 6.54612 13.1994 6.63813 13.3001 6.70261C13.4008 6.76708 13.5179 6.80132 13.6375 6.80125C13.7275 6.80149 13.8165 6.78186 13.8981 6.74375C14.0487 6.67452 14.1656 6.54833 14.2232 6.39292C14.2807 6.2375 14.2742 6.0656 14.205 5.915L13.25 3.84187C13.1778 3.6961 13.0516 3.58423 12.8982 3.53002C12.7448 3.47582 12.5764 3.48355 12.4286 3.55157C12.2808 3.6196 12.1654 3.74256 12.1068 3.89433C12.0483 4.0461 12.0512 4.21473 12.115 4.36437L13.0694 6.4375ZM33.8237 14.2619C33.9138 14.262 34.0027 14.2423 34.0844 14.2044L36.1581 13.25C36.3039 13.1778 36.4158 13.0516 36.47 12.8982C36.5242 12.7448 36.5165 12.5764 36.4484 12.4286C36.3804 12.2808 36.2574 12.1654 36.1057 12.1068C35.9539 12.0483 35.7853 12.0512 35.6356 12.115L33.5625 13.0694C33.4331 13.1291 33.328 13.2312 33.2646 13.3588C33.2012 13.4864 33.1833 13.6318 33.2139 13.7709C33.2445 13.9101 33.3216 14.0346 33.4327 14.1239C33.5437 14.2132 33.6813 14.2619 33.8237 14.2619ZM36.46 25.9769L34.3431 25.125C34.1897 25.0642 34.0185 25.0664 33.8668 25.1314C33.7151 25.1963 33.5952 25.3186 33.5333 25.4716C33.4714 25.6246 33.4725 25.7958 33.5364 25.948C33.6003 26.1001 33.7218 26.2208 33.8744 26.2838L35.9912 27.1394C36.0658 27.1693 36.1453 27.1848 36.2256 27.185C36.3709 27.1854 36.5118 27.1351 36.6241 27.0428C36.7363 26.9505 36.8129 26.822 36.8406 26.6793C36.8684 26.5367 36.8456 26.3888 36.7761 26.2612C36.7066 26.1336 36.5948 26.0341 36.46 25.98V25.9769ZM14.5331 33.5294C14.3795 33.4676 14.2077 33.4694 14.0554 33.5342C13.9031 33.599 13.7827 33.7215 13.7206 33.875L12.8656 35.9912C12.8039 36.1448 12.8055 36.3165 12.8702 36.4688C12.9348 36.6211 13.0573 36.7416 13.2106 36.8037C13.2851 36.8337 13.3647 36.8492 13.445 36.8494C13.5696 36.8493 13.6913 36.812 13.7945 36.7423C13.8977 36.6726 13.9778 36.5737 14.0244 36.4581L14.8794 34.3419C14.9411 34.1882 14.9393 34.0163 14.8743 33.864C14.8094 33.7117 14.6867 33.5913 14.5331 33.5294ZM3.54 14.0231L5.65687 14.8781C5.73139 14.9081 5.81094 14.9236 5.89125 14.9237C6.03623 14.9236 6.17665 14.873 6.28846 14.7807C6.40027 14.6885 6.47652 14.5602 6.50414 14.4178C6.53176 14.2755 6.50905 14.128 6.43988 14.0006C6.37071 13.8732 6.2594 13.7738 6.125 13.7194L4.00875 12.8638C3.85501 12.8016 3.68287 12.8031 3.5302 12.8678C3.37754 12.9326 3.25685 13.0553 3.19469 13.2091C3.13253 13.3628 3.13399 13.5349 3.19875 13.6876C3.2635 13.8403 3.38626 13.961 3.54 14.0231ZM25.4669 6.47062C25.5414 6.50058 25.6209 6.51606 25.7013 6.51625C25.8258 6.5162 25.9475 6.47892 26.0508 6.40921C26.154 6.3395 26.234 6.24053 26.2806 6.125L27.1356 4.00875C27.1683 3.9323 27.1855 3.8501 27.186 3.76694C27.1866 3.68379 27.1705 3.60136 27.1388 3.52449C27.1071 3.44762 27.0604 3.37784 27.0014 3.31926C26.9424 3.26067 26.8723 3.21445 26.7952 3.1833C26.7181 3.15216 26.6355 3.13671 26.5524 3.13786C26.4692 3.13902 26.3871 3.15675 26.3109 3.19003C26.2347 3.2233 26.1659 3.27145 26.1086 3.33166C26.0512 3.39186 26.0064 3.4629 25.9769 3.54062L25.125 5.65687C25.0627 5.81014 25.0637 5.98187 25.1277 6.13441C25.1918 6.28696 25.3138 6.40786 25.4669 6.47062ZM31.875 20C31.875 22.3487 31.1785 24.6446 29.8737 26.5974C28.5689 28.5502 26.7142 30.0723 24.5444 30.9711C22.3745 31.8699 19.9868 32.105 17.6833 31.6468C15.3798 31.1886 13.2639 30.0576 11.6031 28.3969C9.94236 26.7361 8.81137 24.6202 8.35318 22.3167C7.89498 20.0132 8.13014 17.6255 9.02893 15.4556C9.92772 13.2858 11.4498 11.4311 13.4026 10.1263C15.3554 8.82146 17.6513 8.125 20 8.125C23.1486 8.12781 26.1674 9.37983 28.3938 11.6062C30.6202 13.8326 31.8722 16.8514 31.875 20ZM20.625 10.625C20.625 10.4592 20.5592 10.3003 20.4419 10.1831C20.3247 10.0658 20.1658 10 20 10C19.8342 10 19.6753 10.0658 19.5581 10.1831C19.4408 10.3003 19.375 10.4592 19.375 10.625V21.675L15.1125 27.7687C15.0475 27.8624 15.0094 27.9721 15.0023 28.0859C14.9951 28.1997 15.0193 28.3133 15.072 28.4143C15.1248 28.5154 15.2042 28.6001 15.3017 28.6593C15.3992 28.7184 15.511 28.7498 15.625 28.75C15.7257 28.7493 15.8247 28.7245 15.9138 28.6777C16.003 28.631 16.0797 28.5636 16.1375 28.4813L20.5125 22.2313C20.5876 22.1278 20.6271 22.0028 20.625 21.875V10.625Z" fill="white"/>
</svg>
