<svg width="742" height="470" viewBox="0 0 742 470" fill="none" xmlns="http://www.w3.org/2000/svg">
<g clip-path="url(#clip0_135_396)">
<path d="M742 354.577L729.325 349.897C741.766 319.983 746.157 282.948 729.746 253.621C721.246 238.426 711.541 233.657 695.431 229.067C684.475 225.945 673.266 223.603 662.268 220.641L729.367 197.519L729.311 177.349L705.548 172.191C719.882 146.6 724.718 106.772 708.467 81.1011C693.744 57.8475 670.126 60.9643 645.979 58.4671C608.22 54.5571 570.45 50.6659 532.691 46.7887C483.82 47.5163 468.595 108.87 489.097 145.975C491.533 150.383 494.748 154.18 498.413 157.588C498.834 158.602 497.246 158.419 496.693 158.334C494.926 158.062 491.562 154.579 489.504 153.359C486.576 151.622 483.155 150.402 479.94 149.303L406.567 132.945C406.211 132.438 408.952 124.327 409.294 122.849C414.449 100.52 410.826 74.5578 391.127 60.509C381.366 53.5479 374.285 53.9751 363.076 52.5669C338.461 49.4689 311.183 44.8126 286.68 43.3809C270.12 42.4093 257.946 47.8777 247.749 60.8235L230.045 58.4671C232.908 53.1161 235.65 48.6569 236.709 42.5032C240.383 21.099 227.59 -0.136205 204.492 -8.14662e-05C195.219 0.0562453 184.099 0.351961 174.83 0.980943C163.289 1.76952 155.744 8.07342 150.533 18.048L145.44 12.4387C133.968 1.79299 119.624 3.6283 105.304 2.96646C94.6855 2.4783 83.4016 0.258083 73.1018 3.78789C50.206 11.6408 42.8161 41.9775 56.9444 60.8986L32.6334 61.8796V71.6194L93.2797 87.574L100.698 87.2032C99.2964 92.6199 97.5861 98.0602 97.7829 103.759C90.7446 102.627 83.2189 99.4824 76.143 98.9004C60.7401 97.633 44.8826 102.247 32.2867 110.959C0.0235596 133.274 -6.45245 179.739 17.0806 210.901L0.618713 211.948C-0.51062 212.652 0.267273 228.081 0.145447 230.55L73.3595 285.793L115.782 280.061C115.744 295.011 119.578 309.778 126.878 322.762L133.279 332.661L109.039 335.656L109.226 357.98L126.227 372.118L126.967 386.96L140.383 398.779C143.828 398.789 153.27 395.39 155.917 396.925L170.004 409.622C169.98 413.133 168.935 423.225 170.683 425.962C171.133 426.661 172.478 427.21 173.157 427.868C176.625 431.2 179.718 435.068 183.719 437.762C185.758 438.185 194.338 434.646 197.285 434.477C198.298 434.42 199.071 434.542 199.872 435.209L223.743 456.585C224.966 458.725 223.733 463.677 224.225 466.329C224.483 467.709 226.001 468.545 226.147 470.005H228.091C227.796 469.235 225.659 466.785 225.659 466.353V458.805L238.302 470.005H239.759C219.178 449.394 196.601 430.881 174.601 411.814C160.102 399.249 145.763 386.463 131.082 374.075C124.301 368.354 117.281 362.904 110.43 357.262V337.538L173.86 386.261L242.96 441.236C243.541 441.705 243.583 442.273 243.672 442.954C244.277 447.558 243.499 454.153 243.625 459.073C243.719 462.706 244.394 466.339 244.136 470.005H245.593L245.322 442.217L267.721 435.932L268.47 437.593L268.447 470.005H269.904L270.186 464.593L413.816 425.69V434.697C413.816 435.246 412.916 437.007 413.263 438.039L412.153 438.875L303.451 470.005H309.286L435.48 433.505L435.943 397.432L396.319 375.249C406.9 357.966 411.131 337.665 412.363 317.566C412.72 317.04 421.97 323.959 423.727 322.903L490.868 302.944C492.555 311.938 495.123 320.654 499.387 328.761L460.554 338.571L460.568 372.522L476.36 380.267L493.225 373.672L519.992 386.19L520.371 402.234L535.123 409.176L552.381 402.516H553.839L595.661 423.005L596.364 437.396L616.125 445.892C653.96 429.618 692.839 415.49 731.541 401.324C734.967 400.07 738.425 398.676 742.005 397.925V395.977L740.056 396.221L740.032 369.414C739.952 368.011 740.693 367.588 742 367.734V366.274L738.692 366.429L723.519 360.665L728.181 351.629L742.005 356.534V354.586L742 354.577ZM211.184 2.11217C239.928 5.42606 244.619 55.3738 218.696 64.8884C213.335 66.8551 211.212 64.5316 206.212 63.1C199.989 61.3163 193.715 59.7298 187.473 58.0071C170.646 38.2458 181.672 -1.2909 211.184 2.11217ZM156.133 51.6516C158.579 40.8509 157.229 29.3086 151.442 19.7565C155.168 12.0914 161.381 4.79239 170.125 3.08381L198.434 1.98074L192.735 4.78769C179.085 14.0441 174.741 33.4064 180.435 48.4973C181.54 51.4216 183.434 54.0032 184.333 57.0073L156.133 51.6516ZM79.559 3.44055C83.3688 2.96177 88.0454 3.79259 91.9583 3.44055L82.3613 8.68363C65.2058 20.8267 60.9369 46.9952 74.6903 63.3488C75.4681 64.2735 81.3538 69.4274 80.7681 70.1596C71.9303 69.2443 65.1356 67.8737 59.1328 60.9126C42.535 41.6723 53.7485 6.69811 79.559 3.44055ZM95.1166 4.41218C101.358 3.56728 109.343 5.03647 115.782 4.41218L105.421 9.37363C83.4016 25.1498 82.9048 59.8377 105.571 75.276C105.641 75.6515 105.126 75.567 104.84 75.5247C89.7324 73.1684 78.7484 70.8731 71.4523 55.8808C62.3568 37.1803 73.4673 7.33648 95.1166 4.41688V4.41218ZM154.676 51.1681H145.196C145.013 51.1681 144.741 52.1257 143.992 50.9287C152.384 32.9417 133.771 9.61302 114.479 19.428C99.6573 26.9664 97.7173 49.253 108.711 60.9267L114.802 65.5267C113.865 66.6486 112.553 67.5827 111.639 68.6904C110.599 69.9578 107.994 74.3043 106.419 73.9851C103.031 73.2904 95.782 63.1469 94.2028 59.8706C81.3726 33.2046 102.385 -2.95724 133.387 6.98444C151.203 12.6969 159.02 33.9039 154.676 51.1634V51.1681ZM125.613 18.6722C137.759 19.8457 145.482 32.5662 144.455 44.0944C144.296 45.8781 143.148 51.0508 141.536 51.8816C140.088 52.6279 135.468 53.2381 133.387 53.9469C130.426 54.9514 127.103 56.5285 124.385 58.0822C122.703 59.0445 116.419 63.9167 115.571 63.8463C114.643 63.7712 109.47 59.7908 109.465 59.2041C119.179 51.6844 121.667 38.626 116.836 27.4592C116.302 26.2294 113.645 22.5119 113.861 21.7655C116.897 19.2167 121.78 18.3014 125.613 18.6722ZM112.117 22.9202C120.669 33.167 119.498 50.1824 108.266 57.9836C100.159 47.5397 101.565 31.1017 112.117 22.9202ZM261.217 137.306C263.803 121.173 261.432 103.36 250.931 90.3856C247.726 86.424 243.682 83.5607 239.928 80.1529C242.515 71.7743 246.638 63.898 252.641 57.4908C260.425 49.1826 270.336 44.6764 281.793 44.3291L317.552 48.2485C315.705 49.8116 312.716 50.0838 310.415 51.0789C277.43 65.3108 268.798 111.104 287.393 140.061L291.779 146.135L261.217 137.306ZM318.765 49.7036C321.83 49.314 325.579 49.9899 328.732 49.7036L317.392 54.6604C290.392 72.4268 283.447 110.48 298.822 138.353C301.169 142.61 304.473 147.304 308.311 150.275C305.326 150.092 300.804 148.764 297.838 147.614C291.746 145.248 288.072 139.033 285.373 133.311C272.824 106.706 279.534 71.6006 305.138 55.5381C308.433 53.4728 314.984 50.1871 318.761 49.7036H318.765ZM360.817 54.083C334.253 60.7765 319.988 90.8691 321.418 116.69C321.802 123.609 323.62 130.335 325.255 137.015C320.49 141.709 315.968 146.567 311.961 151.932C286.423 130.791 286.165 88.2452 308.062 64.311C324.384 46.4695 336.867 50.6659 358.578 53.1724C359.084 53.2287 360.86 53.3648 360.817 54.083ZM99.2965 104.204C99.587 83.7156 112.825 63.4051 132.056 56.0263C147.633 50.0463 159.179 53.2522 174.704 56.674C180.697 57.9977 186.634 59.5139 192.599 60.9126C193.101 61.382 192.852 61.8655 191.915 61.8139C185.191 61.4571 177.328 63.0953 170.955 65.2827C150.219 72.4033 135.023 90.7658 131.817 112.531L99.2965 104.204ZM588.121 54.5759C590.427 54.2614 593.281 54.8012 595.656 54.5759L586.289 57.6128C549.04 74.9098 540.104 142.751 566.72 171.468L572.315 176.819C559.944 172.975 552.784 158.907 549.795 147.027C543.248 121.013 548.6 88.5315 566.72 68.207C571.364 62.9967 581.116 55.524 588.121 54.5759ZM326.305 135.419C318.367 110.907 324.107 80.9462 344.285 64.0622C366.103 45.8077 394.332 55.7447 405.292 80.397C412.598 96.835 410.597 115.822 405.03 132.452L401.173 131.997C408.769 112.273 409.482 89.3342 395.325 72.3564C378.723 52.4448 353.179 57.6973 338.742 77.0127C328.17 91.1554 325.373 107.504 327.903 124.801C328.226 127.012 329.749 131.509 329.684 133.269C329.642 134.316 327.411 135.56 326.31 135.414L326.305 135.419ZM218.368 66.2684C222.674 65.7051 225.35 62.0016 228.841 59.9316L246.568 61.8843C245.912 66.4608 240.373 64.9776 237.093 65.2967C231.69 65.8225 225.369 67.1039 220.088 67.2588C219.057 67.2869 218.073 67.6484 218.372 66.2731L218.368 66.2684ZM330.194 132.983C327.013 118.863 326.413 104.28 331.9 90.625C344.487 59.3073 381.731 46.6479 399.969 80.8664C406.773 93.6291 407.059 108.105 403.465 121.891C402.631 125.092 401.651 128.317 400.222 131.307L389.993 129.57C398.868 115.451 398.526 92.1975 387.087 79.646C365.335 55.7775 337.448 84.3493 336.029 109.861C335.658 116.479 337.486 122.257 338.915 128.58L330.19 132.987L330.194 132.983ZM63.7579 67.24H53.7907C52.3943 67.24 41.0589 64.3016 38.8611 63.682C38.3597 63.5412 37.3897 63.56 37.5069 62.8606C43.7908 63.4849 50.5574 61.7247 56.7383 62.3396C59.2265 62.5884 61.5648 65.7567 63.7579 67.24ZM133.303 112.987C136.049 91.7797 150.604 74.5578 170.467 67.2306C181.99 62.978 194.179 62.4053 206.208 64.8086L202.506 65.7192C174.493 66.3059 147.558 87.4848 147.38 116.916L133.303 112.987ZM92.9282 78.6837V85.7434L34.0674 69.4461L34.1002 64.311C34.8077 64.2829 35.52 64.2829 36.2323 64.3673C48.1254 65.7614 66.4429 71.3847 78.5516 74.5813C83.0548 75.7688 87.4971 77.2427 92.1035 78.0547L92.9329 78.6837H92.9282ZM222.257 68.2163L244.131 66.2684L240.893 72.6192L230.945 73.3186L222.257 68.221V68.2163ZM148.378 117.864C149.137 99.6326 158.551 83.9597 174.282 74.9474C193.302 64.0529 217.618 62.8043 234.895 77.7121L221.521 75.0366C191.353 73.4313 170.753 101.933 170.716 130.063C164.165 124.59 156.606 120.272 148.378 117.864ZM103.626 76.9799H92.6892C89.9151 76.9799 78.7249 73.1731 75.0464 72.2531C70.3651 71.0843 65.6182 69.9343 60.8479 69.1833L64.4935 68.1741C70.7213 71.0984 77.7128 70.4929 83.8327 71.7321C85.2104 72.009 87.5862 73.4172 89.4278 73.9194C93.7483 75.1023 97.9657 75.276 102.178 76.2476C102.722 76.3743 103.748 76.2476 103.631 76.9799H103.626ZM388.446 129.007L359.116 123.205C355.935 123.623 352.786 123.816 349.632 124.459C347.158 124.966 343.217 126.876 341.488 127.068C339.398 127.298 338.526 121.699 338.193 119.854C334.74 100.693 346.038 73.6847 367.875 72.6051C394.041 71.3096 401.614 111.574 388.441 129.007H388.446ZM233.438 74.5484L240.242 74.0602C240.528 74.3278 239.263 78.4537 238.536 78.9278C238.072 79.0358 233.799 75.459 233.438 74.5484ZM224.3 76.6325C249.825 79.2329 262.533 107.063 260.603 130.242C259.389 144.807 249.567 166.187 235.495 172.299C230.818 174.331 225.191 172.106 220.092 171.923C216.193 171.783 211.353 172.102 207.435 172.44C202.196 172.89 195.997 175.495 191.208 172.609C190.261 161.282 185.927 149.416 179.39 140.127C178.354 138.653 172.445 132.236 172.276 131.664C171.733 129.824 172.431 124.285 172.726 122.084C176.208 96.1497 196.756 73.8209 224.3 76.6278V76.6325ZM94.3856 78.4397H104.596L101.204 85.9968L94.3856 86.2315V78.4397ZM679.883 82.4623C700.046 85.1942 705.693 114.263 704.582 130.814C703.167 151.885 686.616 187.15 660.342 178.499C642.151 172.51 637.704 146.956 638.993 130.368C640.567 110.048 655.534 79.1578 679.887 82.4623H679.883ZM59.3765 235.746C46.5462 227.856 32.3383 221.927 20.4874 212.61C-20.0419 162.033 20.6514 88.6066 86.6162 102.543C96.3865 104.608 105.988 107.631 115.777 109.617C115.894 110.461 114.671 110.077 114.086 110.1C107.267 110.339 100.979 110.95 94.3903 112.78C45.8854 126.252 23.4114 185.972 52.6661 227.626L59.3765 235.751V235.746ZM90.4962 249.377C71.6351 244.82 56.2462 234.807 47.7786 216.924C23.9081 166.492 64.8544 107.129 120.332 111.616C126.279 112.1 131.78 114.601 137.651 115.456C137.764 116.305 136.545 115.916 135.955 115.939C132.6 116.071 129.062 115.709 125.744 115.944C79.6903 119.239 52.5958 170.384 64.8591 212.469C69.2452 227.527 78.2517 239.821 90.4868 249.373L90.4962 249.377ZM116.508 240.13C118.743 240.365 121.283 239.961 123.556 240.13L118.397 256.23C86.3256 256.132 64.8638 224.814 63.2705 195.074C60.8244 149.336 101.204 105.796 148.453 119.488C173.349 126.702 189.291 151.172 190.191 176.533L175.093 182.17C176.255 154.631 153.682 129.847 125.313 133.532C87.5674 138.432 66.0259 185.944 85.2385 218.36C91.6349 229.147 103.725 238.788 116.504 240.126L116.508 240.13ZM351.094 225.03L300.284 201.659C299.632 197.345 299.6 193.093 300.049 188.751C303.142 158.865 329.379 122.332 362.458 125.252L407.003 134.447C407.143 135.081 406.501 135.025 406.037 135.17C404.533 135.63 402.87 135.776 401.286 136.264C366.052 147.168 345.536 189.765 351.089 225.025L351.094 225.03ZM126.475 233.798C124.816 240.553 121.536 239.919 115.594 239.098C91.8223 235.821 77.3707 210.319 78.8093 187.756C80.8571 155.593 112.684 123.656 145.917 136.649C163.954 143.699 175.369 163.657 174.619 182.808L168.781 186.071C170.388 161.536 153.26 136.94 126.785 139.381C89.8683 142.784 70.3979 194.618 95.5992 222.115C99.3574 226.213 111.035 233.798 116.513 233.798H126.48H126.475ZM357.903 228.438C356.68 227.532 354.412 227.316 353.334 226.443C352.406 225.692 351.699 219.609 351.591 217.961C349.918 192.656 361.464 165.089 381.014 149.069C390.4 141.375 403.324 134.551 415.761 136.395C415.592 137.329 414.744 137.198 414.083 137.39C405.709 139.789 402.059 139.916 394.229 144.774C366.881 161.738 352.565 196.82 357.903 228.438ZM359.477 228.813C356.249 210.141 359.379 191.431 368.353 174.857C376.909 159.048 392.781 142.835 410.887 139.057C419.341 137.292 422.799 138.343 430.929 139.953C442.766 142.295 454.434 145.511 466.327 147.6L454.411 150.993C434.917 158.611 421.131 176.458 413.947 195.689C402.757 225.645 403.081 264.665 428.408 287.365L405.573 276.884C397.537 255.151 381.281 237.14 359.482 228.813H359.477ZM258.232 146.614C259.005 145.126 259.741 138.864 261.362 138.831C275.209 143.281 289.497 146.421 303.334 150.871C304.96 151.392 308.709 152.336 309.918 153.04C310.443 153.345 310.771 153.411 310.762 154.152C310.748 155.157 306.797 159.822 306.793 161.658L258.232 146.614ZM127.375 232.259C108.186 235.253 91.5458 221.068 86.9583 203.011C79.6949 174.416 101.668 138.62 133.036 140.784C153.921 142.225 169.371 164.221 167.314 184.357C166.822 189.159 163.879 189.15 160.557 191.713C146.494 202.542 135.093 216.182 127.38 232.259H127.375ZM253.372 157.33C253.26 156.767 253.438 156.391 253.635 155.894C254.047 154.852 256.723 149.67 257.318 148.872C257.632 148.449 257.81 148.041 258.447 148.092L305.387 163.869L301.722 172.937L253.367 157.33H253.372ZM492.578 268.374C492.035 270.317 492.035 273.016 491.491 274.828C490.521 278.071 480.395 285.849 477.171 287.759C458.46 298.86 437.935 297.006 423.53 280.32C394.646 246.866 409.425 177.002 447.527 155.79C480.118 137.648 507.302 161.442 513.347 193.759C514.879 201.941 515.793 218.088 513.745 226.02C513.342 227.593 510.943 230.376 509.603 231.362C512.934 210.812 511.59 188.084 498.614 171.013C481.074 147.933 453.675 153.462 435.929 172.914C415.391 195.426 407.898 234.667 420.049 262.858C431.698 289.886 458.783 297.105 482.11 278.587C485.952 275.536 489.134 271.828 492.574 268.374H492.578ZM474.701 156.983C506.121 160.522 514.973 206.691 508.492 231.958C507.358 236.385 500.676 245.632 498.333 251.001C496.294 255.672 495.156 261.849 493.267 265.895C489.622 273.696 473.938 284.201 465.728 286.525C429.861 296.664 413.268 257.648 414.796 228.203C416.389 197.59 438.286 152.885 474.701 156.987V156.983ZM277.149 170.046L249.965 161.465L252.547 158.4L301.305 174.355C298.981 182.935 297.692 191.75 298.1 200.678L267.964 187.038C267.875 186.315 269.272 186.315 269.806 186.216C272.219 185.766 274.759 185.705 277.144 185.047V170.046H277.149ZM497.93 159.776C499.486 158.334 505.432 161.785 506.679 163.174L501.341 163.925L497.93 159.776ZM245.111 167.07L248.742 162.845L271.849 170.482C269.145 170.778 266.01 171.848 263.335 171.947C257.533 172.163 250.992 167.835 245.115 167.075L245.111 167.07ZM502.794 165.131C504.889 165.169 507.25 164.108 509.279 164.188C513.633 164.357 522.363 166.807 527.105 167.802C568.112 176.373 608.562 187.545 649.377 196.796C650.126 196.965 650.23 196.458 650.108 197.754L640.853 199.983L504.008 166.586L502.789 165.131H502.794ZM639.897 201.166V215.29C621.275 210.648 602.788 205.161 584.087 200.819C577.442 199.275 570.746 198.411 564.138 196.937C546.983 193.112 530.17 187.662 512.995 183.879C511.116 183.024 510.488 179.166 509.528 177.124C508.094 174.087 506.486 171.154 504.729 168.295L639.897 201.162V201.166ZM260.668 173.651V183.146C252.332 179.856 244.23 175.758 235.387 173.885L243.963 168.164L260.668 173.646V173.651ZM261.704 173.472L275.738 171.454L275.996 183.649C272.777 184.658 264.595 186.657 262.116 183.879C260.973 182.597 261.919 175.58 261.704 173.468V173.472ZM704.151 173.951L726.438 178.758C723.031 178.889 718.139 182.147 715.023 182.175C710.885 182.212 705.093 179.448 700.674 179.734L704.151 173.951ZM192.112 370.156L144.798 341.336C71.6351 274.26 156.611 143.877 248.981 179.997L287.889 198.237C262.36 196.055 237.988 204.429 218.143 220.177C187.895 244.181 167.956 289.764 174.75 328.371C177.346 343.124 182.557 358.473 192.107 370.151L192.112 370.156ZM191.625 174.383L195.027 174.622L191.629 175.843L191.62 174.383H191.625ZM715.745 201.166V183.879L727.9 179.739V197.026L715.745 201.166ZM714.287 183.635V192.403L708.772 192.858L690.951 189.479L699.545 180.79L714.287 183.639V183.635ZM513.005 185.587L527.541 189.042L527.138 204.752L535.854 207.508C528.679 212.671 521.599 217.919 515.676 224.547C515.868 216.83 516.655 209.221 515.915 201.42C515.409 196.055 514.083 190.835 513.005 185.587ZM529.045 189.479L540.432 192.346C540.957 192.699 540.975 203.865 540.263 204.856C539.973 205.259 538.094 206.47 537.569 206.494C536.182 206.555 530.61 204.443 529.045 203.851V189.483V189.479ZM690.464 190.938L706.026 194.102L690.464 199.214V190.934V190.938ZM662.751 199.218C671.682 198.754 680.567 196.313 687.844 190.981C689.882 190.666 688.997 198.533 688.027 199.941L662.755 207.987V199.218H662.751ZM541.688 192.886L561.627 197.998C554.715 199.2 548.126 201.349 541.688 204.086V192.886ZM714.287 193.863V201.41L659.948 219.571L643.782 216.022L714.287 193.863ZM652.54 198.242L661.298 198.73L661.228 203.537L652.062 206.039L652.544 198.247L652.54 198.242ZM641.359 215.29V201.899C644.311 200.378 647.868 199.763 651.082 198.735V211.643L641.359 215.295V215.29ZM201.831 376.981C188.996 368.527 182.309 353.666 178.532 339.2C161.147 272.622 216.306 190.323 289.037 200.26C292.903 200.786 297.561 201.711 300.532 204.081C277.126 200.467 254.567 204.917 234.745 217.816C187.853 248.331 167.581 313.994 193.485 364.641L201.831 376.976V376.981ZM275.251 422.268C264.764 418.189 255.092 412.42 245.636 406.402C215.978 387.533 192.117 376.145 185.458 338.106C172.693 265.168 230.195 189.732 307.608 206.987C320.719 213.032 334.154 218.543 347.111 224.903C347.762 225.223 348.456 224.589 348.175 226.002C317.8 219.595 287.304 234.526 267.219 256.676C234.713 292.538 222.941 349.968 247.454 393.372C254.281 405.459 263.639 414.757 275.251 422.263V422.268ZM661.289 205.067C661.19 206.156 661.692 207.991 660.811 208.723C660.459 209.015 654.161 210.995 653.397 211.08C651.42 211.296 651.729 209.029 652.53 207.738L661.284 205.067H661.289ZM3.47247 213.347C7.33374 213.22 11.5417 212.493 15.3608 212.352C20.2577 212.169 19.119 213.314 22.2024 215.764C34.1049 225.213 51.1807 231.508 63.9031 240.224L91.4709 257.653C85.8758 258.559 79.7371 260.605 74.1046 259.713L3.47247 213.342V213.347ZM585.614 233.967C593.918 225.786 605.52 218.008 616.795 214.793C621.27 213.516 625.75 212.267 630.178 214.558C568.009 225.373 537.447 308.45 567.55 361.055C571.739 368.372 576.172 372.498 582.053 378.183C582.24 378.366 583.379 379.243 582.765 379.417C572.742 374.658 565.08 362.885 560.563 352.958C542.803 313.914 555.746 263.398 585.614 233.967ZM1.52313 214.319C3.04138 214.858 4.67206 215.966 6.04974 216.844C28.1958 230.893 49.7327 245.974 71.8694 260.028C72.3614 260.342 72.8909 260.558 73.4766 260.586V283.962L1.51843 229.658V214.319H1.52313ZM340.499 226.152C398.437 230.902 419.407 294.462 407.26 344.358C393.901 399.258 329.215 454.796 273.349 419.066C195.88 369.522 247.932 218.562 340.499 226.152ZM94.3856 269.35V257.906C90.0932 254.456 84.9761 252.147 80.604 248.823C80.1542 248.481 79.0764 247.842 80.5197 247.932C84.8542 251.062 90.5103 251.485 95.215 253.179C101.982 255.616 109.217 261.685 116.143 264.346L116.789 265.205L115.941 266.839L94.3903 269.355L94.3856 269.35ZM691.537 254.395C718.448 257.319 725.313 291.205 723.036 313.421C720.37 339.458 703.092 374.385 675.984 381.712C638.079 391.955 628.102 347.766 632.193 319.34C636.129 291.974 659.25 250.889 691.541 254.4L691.537 254.395ZM104.601 256.207C108.978 257.024 113.275 257.822 117.755 257.892L117.234 263.022L104.601 256.207ZM74.9387 261.558L92.9282 259.122V281.282L92.1176 281.934L74.4513 284.445C74.2686 283.92 74.934 283.385 74.934 283.23V261.558H74.9387ZM94.3856 270.81L116.016 267.881C116.944 267.829 115.398 277.606 115.782 278.606L94.3856 281.526V270.81ZM489.673 279.094H490.634L489.926 283.497L482.855 285.905C484.678 283.774 487.026 282.075 489.148 280.263C489.589 279.888 489.622 279.137 489.668 279.099L489.673 279.094ZM406.529 279.094L438.614 293.458C438.286 294.228 424.453 298.058 422.57 297.879L410.386 292.026L406.529 279.094ZM440.559 316.101V300.761L441.393 300.137C445.817 299.339 450.222 297.227 454.528 296.246C458.09 295.439 461.829 295.415 465.723 294.312C470.573 292.941 473.947 290.641 478.347 288.938C481.913 287.553 486.224 286.675 489.898 285.412L490.568 301.184L440.554 316.101H440.559ZM440.564 294.19L448.821 296.617L440.559 298.574V294.19H440.564ZM410.414 294.19L422.49 299.865L422.078 320.973L412.438 315.294C412.101 308.229 412.12 301.071 410.419 294.19H410.414ZM423.54 320.973V300.273C428.183 297.438 434.069 297.11 439.097 295.162V316.345L423.54 320.973ZM481.885 334.614L500.043 330.281C504.818 337.463 509.865 344.02 516.407 349.7L481.89 334.614H481.885ZM112.375 336.562C119.976 335.848 127.637 334.14 135.233 334.365C140.88 341.749 149.404 345.884 156.775 351.258C190.73 376.033 224.975 401.676 258.185 427.436C260.874 429.52 263.841 431.562 266.362 433.819C266.68 434.106 267.299 433.791 266.985 434.927L244.164 440.541C200.978 404.943 156.208 371.33 112.375 336.562ZM463.895 338.998L477.893 335.679C529.237 355.966 579.288 380.126 629.967 402.262L630.661 403.276C626.565 403.534 619.841 407.979 616.059 406.952C592.311 396.381 568.712 385.449 544.93 374.949C519.115 363.547 491.088 352.976 465.995 340.547C465.25 340.176 464.167 339.894 463.895 339.003V338.998ZM461.951 340.453L616.073 408.148V429.82L615.085 430.341C605.305 426.488 596.167 421.385 586.748 416.827C546.585 397.395 506.322 378.126 466.018 359.027C464.734 358.421 463.314 357.896 461.955 357.497V340.453H461.951ZM269.417 441.752V434.692L165.856 356.046C167.379 356.337 168.851 357.478 170.191 358.276C197.295 374.376 222.337 393.593 249.033 410.308C262.477 418.724 276.156 425.361 291.765 428.872L295.185 434.448L269.417 441.761V441.752ZM461.951 359.449C466.965 360.604 471.562 363.556 476.051 366.025V377.957L461.951 371.625V359.449ZM738.598 367.725V381.604L737.609 382.125L714.775 373.559L722.788 361.951L738.603 367.725H738.598ZM477.508 366.753L491.126 372.846C491.341 373.916 490.662 373.461 490.053 373.695C485.971 375.272 481.758 376.882 477.508 377.953V366.753ZM127.933 374.057L139.113 383.064V394.996L127.933 385.5V374.057ZM713.364 374.578L735.191 382.83L734.699 383.548L679.283 402.788L689.934 396.663C698.767 390.546 707.263 383.543 713.359 374.578H713.364ZM395.349 376.493L433.263 397.916L415.808 402.553L388.545 386.96L395.349 376.488V376.493ZM633.093 436.396V422.028L738.111 383.797V396.217C738.111 396.362 738.8 396.77 738.153 397.184L633.093 436.392V436.396ZM140.576 396.949V384.285L152.731 394.991L140.576 396.944V396.949ZM522.241 387.697L534.64 393.532L534.387 407.172L521.988 400.845L522.236 387.697H522.241ZM413.816 403.52V424.22L376.862 401.079L387.767 388.655L413.816 403.525V403.52ZM536.341 394.513L551.411 401.812L536.341 407.177V394.513ZM415.339 404.318L434.495 399.361L434.191 432.458L414.796 437.861L415.344 404.323L415.339 404.318ZM358.882 415.462C365.138 411.988 370.438 406.82 375.649 401.934L385.62 408.393L359.116 416.419L358.887 415.462H358.882ZM633.093 404.253C642.338 406.398 650.918 408.374 660.558 407.656C664.756 407.346 668.8 405.755 672.966 405.468L633.093 419.836V404.253ZM617.582 408.684L632.128 404.501L631.57 437.058L617.296 443.217L617.582 408.679V408.684ZM355.475 418.376L387.331 409.66L410.906 423.981C411.183 424.929 409.482 425.108 408.849 425.319C404.786 426.671 400.119 427.774 395.939 428.947C382.556 432.712 369.07 436.429 355.48 439.311V418.372L355.475 418.376ZM182.389 434.448C180.411 432.561 172.82 426.764 171.944 424.699C171.648 424.004 171.292 421.047 171.213 420.076C171.114 418.874 170.856 411.059 171.934 411.082L182.389 420.569V434.448ZM318.039 431.036C330.776 429.999 342.997 425.112 354.018 418.86V440.288L318.039 449.539V431.031V431.036ZM183.846 435.903C184.624 434.65 183.879 433.599 183.823 432.275C183.677 428.792 183.968 425.267 183.851 421.784L196.971 432.979L183.846 435.903ZM597.601 424.22L615.591 432.256V444.188L597.601 436.152V424.22ZM316.577 431.524V450.032C315.701 450.267 315.602 449.633 315.124 449.295C310.551 446.061 303.573 440.485 299.553 436.645C297.692 434.871 295.645 432.759 294.693 430.313L316.577 431.524ZM269.483 443.278L296.863 435.894L314.632 450.272L269.417 462.687C270.64 460.509 269.473 458.289 269.398 456.139C269.253 451.867 269.492 447.544 269.483 443.278Z" fill="#ED6D09"/>
<path d="M203.785 338.993C204.291 341.664 206.198 343.922 205.725 346.78C203.663 345.893 204.909 343.274 203.541 341.913L203.34 345.034L205.237 349.7L205.247 347.757L206.699 348.24C206.99 345.462 206.029 342.523 204.975 339.965C204.656 339.195 205.041 338.768 203.789 338.989L203.785 338.993Z" fill="#ED6D09"/>
<path d="M216.91 347.761L219.094 359.956L222.248 361.881C222.688 359.867 220.533 360.078 219.937 358.6C219 356.271 218.555 351.634 217.89 348.94C217.688 348.118 218.372 347.522 216.906 347.757L216.91 347.761Z" fill="#ED6D09"/>
<path d="M206.212 339.97C208.143 344.941 208.982 350.888 212.529 355.061C211.657 352.136 210.148 349.447 209.108 346.56C208.419 344.65 208.513 342.885 207.43 340.913C207.06 340.242 207.477 339.707 206.212 339.965V339.97Z" fill="#ED6D09"/>
<path d="M198.068 337.651C196.409 339.5 198.452 341.152 198.813 342.753C199.516 345.865 198.911 349.587 202.805 351.169V348.25L202.084 350.193C200.931 348.738 199.525 347.133 199.923 345.119C200.162 344.185 202.046 345.246 201.348 344.11C200.65 342.974 197.805 341.688 197.946 339.247L200.369 338.261C199.839 337.491 198.921 336.698 198.068 337.651Z" fill="#ED6D09"/>
<path d="M214.966 364.321L215.931 369.189C214.675 368.513 214.595 366.64 214.108 365.415C213.686 364.359 213.433 364.237 213.536 365.5L215.931 373.085L215.453 370.17C215.804 369.827 217.126 371.489 216.896 369.945C216.69 368.546 216.428 366.697 216.081 365.378C215.851 364.509 216.217 364.12 214.97 364.331L214.966 364.321Z" fill="#ED6D09"/>
<path d="M221.774 351.657C222.252 355.159 222.786 358.614 223.236 362.129C223.321 362.791 223.578 363.683 224.202 362.852C224.033 359.299 223.189 355.915 222.74 352.38C222.655 351.714 222.398 350.836 221.774 351.657Z" fill="#ED6D09"/>
<path d="M222.262 376.976L223.222 376.742L220.275 368.964L221.282 368.461L218.86 366.753L222.262 376.976Z" fill="#ED6D09"/>
<path d="M225.172 384.778C226.198 387.749 227.29 390.617 229.267 393.105C229.67 393.612 229.248 394.334 230.523 394.02C230.771 393.776 227.398 388.913 227.079 387.937C226.535 386.27 227.857 384.477 225.176 384.773L225.172 384.778Z" fill="#ED6D09"/>
<path d="M220.312 381.365L221.526 386.716L223.26 385.472L221.779 381.694L220.312 381.365Z" fill="#ED6D09"/>
<path d="M205.72 362.369L204.267 361.886L204.755 363.829L205.237 362.857L206.685 363.834C207.496 360.426 204.525 359.83 202.805 357.501C202.609 360.008 206.053 360.102 205.715 362.369H205.72Z" fill="#ED6D09"/>
<path d="M214.474 353.117C214.595 351.549 210.697 347.991 213.269 346.79C215.055 345.959 214.352 353.042 216.414 351.906C215.603 349.531 215.622 346.804 212.791 345.809C210.556 346.339 212.505 352.483 214.474 353.112V353.117Z" fill="#ED6D09"/>
<path d="M224.689 373.573C224.506 373.799 225.49 378.732 226.629 378.929L226.114 376.3L227.116 375.277L224.689 373.573Z" fill="#ED6D09"/>
<path d="M224.684 389.157L222.262 387.209C221.568 387.974 225.134 390.687 225.659 390.129L223.958 386.237L224.684 389.157Z" fill="#ED6D09"/>
<path d="M231.985 392.081C232.351 394.409 234.689 396.005 236.352 397.437L235.387 395.728L231.985 392.081Z" fill="#ED6D09"/>
<path d="M240.251 398.404C241.146 398.517 240.673 397.385 240.509 396.93C240.003 395.545 238.836 393.18 237.819 392.077L240.251 398.404Z" fill="#ED6D09"/>
<path d="M232.468 390.622C232.154 390.931 235.926 394.56 236.352 395.001C236.746 393.828 233.082 390.025 232.468 390.622Z" fill="#ED6D09"/>
<path d="M214.909 356.441L214.132 356.182C213.035 355.774 213.508 356.417 214.005 356.76C214.474 357.079 217.145 358.684 217.398 358.473L215.209 355.558L214.914 356.445L214.909 356.441Z" fill="#ED6D09"/>
<path d="M226.638 374.057C227.515 374.193 227.168 371.907 227.041 371.7C226.957 371.564 224.652 370.757 224.206 370.161C224.347 372.048 227.023 371.794 226.638 374.052V374.057Z" fill="#ED6D09"/>
<path d="M227.604 379.906C227.96 380.811 229.164 381.412 230.036 381.356C229.68 380.45 228.475 379.849 227.604 379.906Z" fill="#ED6D09"/>
<path d="M241.699 401.816V399.385H241.221C241.193 400.417 240.354 401.455 241.699 401.816Z" fill="#ED6D09"/>
<path d="M274.281 260.582C296.577 239.839 324.079 226.842 355.091 236.859C403.034 252.349 412.869 314.059 397.298 356.29C380.053 403.046 322.734 444.836 275.101 411.955C235.298 384.477 235.068 325.681 256.038 286.384C261.474 276.198 268.236 269.505 274.281 260.582C234.511 297.579 226.493 378.704 274.614 412.439C323.62 446.798 382.584 401.967 398.971 353.582C416.829 300.865 393.666 228.588 328.498 232.827C311.549 233.93 283.887 246.406 274.281 260.582Z" fill="#ED6D09"/>
<path d="M221.873 87.8369C186.189 84.2977 168.659 141.376 198.087 161.827C218.04 175.697 242.285 160.625 248.644 139.686C254.928 118.986 246.296 90.2543 221.877 87.8322L221.873 87.8369ZM222.365 89.2873C245.593 91.93 253.522 120.511 247.069 140.061C240.565 159.757 217.651 173.923 198.766 160.653C170.495 140.789 187.684 85.3398 222.365 89.2873Z" fill="#ED6D09"/>
<path d="M441.702 177.471C425.597 193.313 417.199 221.505 421.243 243.646C430.067 291.942 476.66 291.261 496.402 250.527C506.341 230.015 508.089 200.744 495.32 181.133C481.749 160.292 458.605 160.841 441.702 177.471ZM473.736 166.23C493.347 168.886 503.033 194.947 503.759 212.131C504.963 240.665 486.449 282.709 452.48 279.568C428.005 277.306 419.763 245.655 421.117 225.279C422.832 199.519 443.507 162.132 473.736 166.23Z" fill="#ED6D09"/>
<path d="M690.084 261.206C656.696 257.517 635.656 305.211 636.471 332.929C637.282 360.557 656.279 385.674 685.262 368.607C708.931 354.666 721.213 320.509 717.061 294.087C714.802 279.7 706.072 262.971 690.084 261.206ZM685.117 262.534C704.84 261.253 714.137 280.568 716.171 297.415C719.015 320.987 708.111 350.62 688.669 364.716C676.963 373.207 661.087 376.981 650.108 365.298C656.143 365.908 661.546 363.66 666.598 360.627C692.525 345.067 706.021 298.058 691.616 271.359L685.117 262.534ZM683.776 263.135C686.56 263.867 691.143 271.795 692.338 274.532C703.537 300.231 692.577 338.439 671.509 356.286C666.438 360.581 655.675 366.659 649.002 364.209C648.046 363.857 645.023 359.28 644.372 358.135C628.936 331 642.966 283.436 669.597 267.684C672.572 265.923 680.524 262.276 683.781 263.135H683.776Z" fill="#ED6D09"/>
<path d="M209.722 12.3449C200.819 11.3968 192.215 18.7944 189.544 26.9242C181.765 50.6284 210.322 71.7556 224.281 48.5724C231.976 35.791 225.65 14.0441 209.717 12.3449H209.722ZM209.225 13.786C222.412 14.828 228.691 31.6369 225.19 43.1463C220.893 57.2749 204.45 62.5227 195.102 49.8257C194.895 48.9714 198.508 44.4137 199.164 42.8881C202.313 35.561 201.353 25.2813 196.011 19.2684C199.45 15.9499 204.356 13.4058 209.225 13.7907V13.786ZM194.553 20.4889L195.556 20.7893C201.175 29.1679 201.006 40.8463 193.813 48.2345C187.721 39.8981 188.719 28.7313 194.553 20.4889Z" fill="#ED6D09"/>
<path d="M679.882 86.3584C642.75 81.3171 627.038 157.602 659.17 173.825C684.231 186.475 700.894 149.468 702.15 129.838C703.087 115.231 697.549 88.757 679.882 86.3537V86.3584ZM671.016 88.6631C671.64 87.5413 674.873 87.1939 676.115 87.1751C691.138 86.8982 699.109 105.082 700.613 117.709C702.642 134.785 696.087 160.062 681.382 170.398C674.179 175.458 664.526 176.721 657.404 170.98C667.835 171.787 676.021 165.704 681.626 157.49C691.11 143.577 694.498 123.769 689.231 107.683C686.49 99.3042 680.566 89.799 671.021 88.6631H671.016ZM670.632 89.2545C684.133 90.4609 690.674 111.236 690.974 122.487C691.401 138.508 682.919 162.822 666.635 168.774C657.76 172.017 653.575 169.67 649.058 162.043C640.712 147.952 641.912 126.796 647.933 112.048C651.11 104.261 660.913 88.3862 670.637 89.2545H670.632Z" fill="#ED6D09"/>
<path d="M380.756 272.27C401.501 307.751 395.391 353.432 368.366 383.801C314.538 444.287 239.047 397.207 254.501 320.88C266.273 262.732 337.008 214.61 380.761 272.27C367.898 250.269 341.22 242.013 317.064 248.157C262.997 261.91 233.503 337.956 264.356 384.731C293.587 429.046 348.667 414.171 375.517 375.869C395.133 347.888 402.513 300.94 380.756 272.27Z" fill="#ED6D09"/>
<path d="M472.269 171.595C444.926 168.314 426.581 201.293 425.006 224.791C423.558 246.359 433.909 275.818 460.193 273.185C484.56 270.744 498.384 239.576 499.41 217.989C500.216 201.011 492.096 173.975 472.269 171.595ZM469.828 172.58C490.952 174.054 498.872 200.641 497.953 218.477C496.899 238.83 483.754 269.284 460.676 271.72C434.814 274.452 425.226 246.462 426.435 225.246C427.644 204.03 444.762 170.83 469.828 172.576V172.58Z" fill="#ED6D09"/>
<path d="M337.584 255.86C291.3 251.72 255.799 304.287 261.216 346.968C270.495 420.081 352.214 414.739 377.926 352.474C392.527 317.115 383.399 259.962 337.584 255.86ZM337.584 257.32C351.862 258.596 364.575 267.243 372.401 278.935C397.457 316.364 377.588 376.972 336.839 394.597C294.257 413.016 260.527 376.995 262.224 335.44C269.215 329.69 275.462 323.813 280.316 316.064C286.3 306.507 290.813 293.519 291.774 282.249C291.956 280.085 291.244 274.316 292.233 272.969C305.087 262.192 320.546 255.799 337.579 257.324L337.584 257.32ZM262.613 332.657C263.498 315.548 269.998 298.922 280.406 285.469C281.46 284.103 289.356 274.753 290.077 274.715C290.958 274.668 290.476 275.814 290.466 276.053C289.679 296.894 282.739 315.505 266.989 329.498C266.549 329.892 262.913 333.009 262.608 332.652L262.613 332.657Z" fill="#ED6D09"/>
</g>
<defs>
<clipPath id="clip0_135_396">
<rect width="742" height="470" fill="white" transform="matrix(-1 0 0 1 742 0)"/>
</clipPath>
</defs>
</svg>
