<svg width="40" height="40" viewBox="0 0 40 40" fill="none" xmlns="http://www.w3.org/2000/svg">
<path d="M23.5156 30.625H14.1406V37.6562H9.45312V40H28.2031V37.6562H23.5156V30.625Z" fill="white"/>
<path d="M7.10938 9.53125H14.1406V16.5625H7.10938V9.53125Z" fill="white"/>
<path d="M18.8281 2.5H9.45312V0H7.10938V2.5H2.42188V28.2812H35.2344V18.9062H18.8281V2.5ZM7.10938 24.7656H4.76562V22.4219H7.10938V24.7656ZM11.7969 24.7656H9.45312V22.4219H11.7969V24.7656ZM16.4844 24.7656H14.1406V22.4219H16.4844V24.7656ZM16.4844 18.9062H4.76562V7.1875H16.4844V18.9062Z" fill="white"/>
<path d="M29.375 9.53125C30.0222 9.53125 30.5469 9.00658 30.5469 8.35938C30.5469 7.71217 30.0222 7.1875 29.375 7.1875C28.7278 7.1875 28.2031 7.71217 28.2031 8.35938C28.2031 9.00658 28.7278 9.53125 29.375 9.53125Z" fill="white"/>
<path d="M21.1719 0V16.5625H37.5781V0H21.1719ZM29.375 11.875C27.4367 11.875 25.8594 10.2977 25.8594 8.35938C25.8594 6.42109 27.4367 4.84375 29.375 4.84375C31.3133 4.84375 32.8906 6.42109 32.8906 8.35938C32.8906 10.2977 31.3133 11.875 29.375 11.875Z" fill="white"/>
</svg>
