<svg width="44" height="44" viewBox="0 0 44 44" fill="none" xmlns="http://www.w3.org/2000/svg">
<path d="M22.8088 34.3553H37.9562V16.7382H22.8088V34.3553Z" fill="#ED6D09"/>
<path d="M22.8088 14.16H37.9562V7.09322H22.8088V14.16Z" fill="#ED6D09"/>
<mask id="mask0_135_140" style="mask-type:luminance" maskUnits="userSpaceOnUse" x="0" y="0" width="44" height="44">
<path d="M0 3.8147e-06H44V44H0V3.8147e-06Z" fill="white"/>
</mask>
<g mask="url(#mask0_135_140)">
<path d="M19.7047 44H37.9561V36.9334H22.8087C22.8011 39.7226 21.6073 42.2379 19.7047 44Z" fill="#ED6D09"/>
<path d="M13.1373 27.2346C15.9372 27.2346 18.4629 28.4308 20.2306 30.3386V7.09322C20.2306 3.17628 17.0552 2.67029e-05 13.1373 2.67029e-05C9.21946 2.67029e-05 6.04407 3.17628 6.04407 7.09322V30.3386C7.8118 28.4308 10.3375 27.2346 13.1373 27.2346Z" fill="#ED6D09"/>
<path d="M13.1374 29.8128C9.21973 29.8128 6.04382 32.9887 6.04382 36.9064C6.04382 40.8241 9.21973 44 13.1374 44C17.0551 44 20.2309 40.8241 20.2309 36.9064C20.2309 32.9887 17.0551 29.8128 13.1374 29.8128Z" fill="#ED6D09"/>
</g>
</svg>
