<svg width="44" height="44" viewBox="0 0 44 44" fill="none" xmlns="http://www.w3.org/2000/svg">
<g clip-path="url(#clip0_135_123)">
<path d="M23.2891 44H32.3411V33.3724H23.2891V44Z" fill="#ED6D09"/>
<path d="M11.6589 44H20.7109V33.3724H11.6589V44Z" fill="#ED6D09"/>
<path d="M0 44H9.08076V33.3724H0V44Z" fill="#ED6D09"/>
<path d="M34.9193 44H44V33.3724H34.9193V44Z" fill="#ED6D09"/>
<mask id="mask0_135_123" style="mask-type:luminance" maskUnits="userSpaceOnUse" x="0" y="0" width="44" height="44">
<path d="M0 3.8147e-06H44V44H0V3.8147e-06Z" fill="white"/>
</mask>
<g mask="url(#mask0_135_123)">
<path d="M44 30.7943V26.2719H35.0434C37.1349 23.5212 38.3783 20.0925 38.3783 16.3784C38.3783 7.34738 31.0311 6.86646e-05 22 6.86646e-05C12.9689 6.86646e-05 5.62169 7.34738 5.62169 16.3784C5.62169 18.9353 6.21397 21.4297 7.34379 23.6901H15.3684C13.3768 21.8821 12.1242 19.2738 12.1242 16.3784C12.1242 10.933 16.5545 6.5027 22 6.5027C27.4455 6.5027 31.8758 10.933 31.8758 16.3784C31.8758 21.8239 27.4455 26.2541 22 26.2541V26.2682H0V30.7943H44Z" fill="#ED6D09"/>
<path d="M22 23.676C26.0239 23.676 29.2976 20.4023 29.2976 16.3784C29.2976 12.3544 26.0239 9.08083 22 9.08083C17.976 9.08083 14.7023 12.3544 14.7023 16.3784C14.7023 20.4023 17.976 23.676 22 23.676Z" fill="#ED6D09"/>
</g>
</g>
<defs>
<clipPath id="clip0_135_123">
<rect width="44" height="44" fill="white"/>
</clipPath>
</defs>
</svg>
