<svg width="44" height="44" viewBox="0 0 44 44" fill="none" xmlns="http://www.w3.org/2000/svg">
<path d="M15.5378 1.56409L11.6534 3.50627L7.76904 1.56409V35.475L10.3644 36.7727V41.1469C10.3644 41.8602 10.9401 42.436 11.6534 42.436C12.3667 42.436 12.9425 41.8602 12.9425 41.1469V36.7727L15.5378 35.475V1.56409Z" fill="#ED6D09"/>
<path d="M25.8845 1.56409L22.0001 3.50627L18.1157 1.56409V35.475L20.711 36.7727V41.1469C20.711 41.8602 21.2868 42.436 22.0001 42.436C22.7134 42.436 23.2892 41.8602 23.2892 41.1469V36.7727L25.8845 35.475V1.56409Z" fill="#ED6D09"/>
<path d="M36.2312 1.56409L32.3468 3.50627L28.4624 1.56409V35.475L31.0577 36.7727V41.1469C31.0577 41.8602 31.6335 42.436 32.3468 42.436C33.0601 42.436 33.6358 41.8602 33.6358 41.1469V36.7727L36.2312 35.475V1.56409Z" fill="#ED6D09"/>
<path d="M43.2609 3.78986L38.8008 1.55548V35.4664L41.3961 36.7641V41.1383C41.3961 41.8516 41.9719 42.4274 42.6852 42.4274C43.3984 42.4274 43.9742 41.8516 43.9742 41.1383V4.94142C43.9742 4.46017 43.6992 4.01329 43.2609 3.78986Z" fill="#ED6D09"/>
<path d="M5.19932 1.56409L0.73916 3.79846C0.300879 4.01331 0.0258789 4.46018 0.0258789 4.95002V35.9821V41.1555C0.0258789 41.8688 0.60166 42.4446 1.31494 42.4446C2.02822 42.4446 2.604 41.8688 2.604 41.1555V36.7813L5.19932 35.4836V1.56409Z" fill="#ED6D09"/>
</svg>
