<svg width="44" height="44" viewBox="0 0 44 44" fill="none" xmlns="http://www.w3.org/2000/svg">
<g clip-path="url(#clip0_237_788)">
<path d="M39.5284 10.9968V2.57812H41.803V0H33.5846V11.3844C33.5846 13.5156 31.8508 15.2495 29.7195 15.2495C27.5883 15.2495 25.8544 13.5156 25.8544 11.3844V10.123C25.8544 9.41334 25.2771 8.83601 24.5674 8.83601C23.8577 8.83601 23.2804 9.41334 23.2804 10.123V15.1736C23.2804 17.3048 21.5465 19.0387 19.4153 19.0387C17.284 19.0387 15.5501 17.3048 15.5501 15.1736V0H2.19699V2.57812H4.47159V10.9968H0V28.5128H44V10.9968H39.5284ZM41.4219 25.9347H2.57812V13.5749H4.47159V23.3565H39.5285V13.5749H41.4219V25.9347Z" fill="#ED6D09"/>
<path d="M18.1279 0V15.1736C18.1279 15.8832 18.7053 16.4606 19.4149 16.4606C20.1246 16.4606 20.7019 15.8832 20.7019 15.1736V10.123C20.7019 7.99176 22.4358 6.25788 24.5671 6.25788C26.6983 6.25788 28.4322 7.99176 28.4322 10.123V11.3844C28.4322 12.0941 29.0095 12.6714 29.7192 12.6714C30.4289 12.6714 31.0062 12.0941 31.0062 11.3844V0H18.1279Z" fill="#ED6D09"/>
<path d="M39.5287 41.422V31.0911H4.47186V41.422H2.19727V44.0001H41.8033V41.422H39.5287Z" fill="#ED6D09"/>
</g>
<defs>
<clipPath id="clip0_237_788">
<rect width="44" height="44" fill="white"/>
</clipPath>
</defs>
</svg>
