<svg width="44" height="44" viewBox="0 0 44 44" fill="none" xmlns="http://www.w3.org/2000/svg">
<g clip-path="url(#clip0_236_719)">
<path d="M23.362 7.56852C23.3154 7.26481 23.2891 6.91625 23.2891 6.49533C23.2891 5.14611 23.5595 4.54016 23.9019 3.773C24.294 2.89429 24.7386 1.89845 24.7386 0H22.1604C22.1604 1.34922 21.89 1.95516 21.5476 2.72233C21.1555 3.60095 20.7109 4.59688 20.7109 6.49533C20.7109 6.88987 20.7304 7.24487 20.7643 7.56852H23.362Z" fill="#ED6D09"/>
<path d="M29.1599 7.56852C29.1133 7.26481 29.0869 6.91625 29.0869 6.49533C29.0869 5.14611 29.3574 4.54016 29.6997 3.773C30.0919 2.89429 30.5364 1.89845 30.5364 0H27.9583C27.9583 1.34922 27.6879 1.95516 27.3455 2.72233C26.9533 3.60104 26.5088 4.59688 26.5088 6.49533C26.5088 6.88987 26.5282 7.24487 26.5622 7.56852H29.1599Z" fill="#ED6D09"/>
<path d="M17.5642 7.56852C17.5176 7.26481 17.4912 6.91625 17.4912 6.49533C17.4912 5.14611 17.7617 4.54016 18.104 3.773C18.4962 2.89429 18.9407 1.89845 18.9407 0H16.3626C16.3626 1.34922 16.0921 1.95516 15.7498 2.72233C15.3576 3.60104 14.9131 4.59688 14.9131 6.49533C14.9131 6.88987 14.9325 7.24487 14.9665 7.56852H17.5642Z" fill="#ED6D09"/>
<path d="M30.537 12.9907C30.537 13.1203 30.5348 13.2452 30.5307 13.3667H38.9573L41.6345 10.6895C40.9967 10.3435 40.2666 10.1467 39.4913 10.1467H30.085C30.3359 10.8459 30.537 11.7141 30.537 12.9907Z" fill="#ED6D09"/>
<path d="M16.3544 13.3667C16.3595 13.2474 16.3629 13.1235 16.3629 12.9907C16.3629 11.6415 16.0924 11.0355 15.75 10.2684C15.7321 10.2281 15.7139 10.1875 15.6958 10.1467H4.50949C3.73425 10.1467 3.00404 10.3435 2.36621 10.6895L5.04342 13.3667H16.3544Z" fill="#ED6D09"/>
<path d="M5.04334 40.78L2.36621 43.4572C3.00404 43.8032 3.73416 44 4.50941 44H39.4913C40.2665 44 40.9967 43.8032 41.6345 43.4572L38.9574 40.78H5.04334Z" fill="#ED6D09"/>
<path d="M3.21999 15.1896L0.542781 12.5125C0.196797 13.1503 0 13.8805 0 14.6557V39.491C0 40.2662 0.196797 40.9964 0.542867 41.6342L3.21999 38.957V15.1896Z" fill="#ED6D09"/>
<path d="M5.79785 15.9448V38.2019H38.2016V15.9448H30.044C29.933 16.2406 29.8141 16.5073 29.6997 16.7637C29.3574 17.5307 29.0869 18.1366 29.0869 19.4857H26.5088C26.5088 17.5874 26.9533 16.5914 27.3455 15.7129C27.6451 15.0416 27.8895 14.4938 27.946 13.4636C27.9541 13.3164 27.9583 13.1594 27.9583 12.9907C27.9583 11.6416 27.6879 11.0357 27.3455 10.2685C27.3275 10.2281 27.3094 10.1875 27.2913 10.1467H24.2863C24.4789 10.6835 24.6422 11.3197 24.7076 12.1639C24.7275 12.4195 24.7383 12.6941 24.7383 12.9907C24.7383 14.8892 24.2938 15.8851 23.9016 16.7637C23.5592 17.5308 23.2888 18.1367 23.2888 19.4858H20.7107C20.7107 17.5875 21.1552 16.5915 21.5474 15.713C21.8469 15.0417 22.0914 14.4939 22.1479 13.4637C22.156 13.3164 22.1602 13.1594 22.1602 12.9908C22.1602 11.6416 21.8897 11.0357 21.5474 10.2685C21.5294 10.2282 21.5113 10.1876 21.4931 10.1468H18.4882C18.7391 10.846 18.9402 11.7142 18.9402 12.9908C18.9402 14.8893 18.4956 15.8852 18.1035 16.7638C17.7611 17.5309 17.4907 18.1368 17.4907 19.4859H14.9126C14.9126 17.7522 15.2833 16.7713 15.6464 15.9449H5.79785V15.9448Z" fill="#ED6D09"/>
<path d="M43.4575 12.5125L40.7803 15.1896V38.957L43.4574 41.6342C43.8035 40.9964 44.0003 40.2663 44.0003 39.491V14.6557C44.0003 13.8805 43.8035 13.1503 43.4575 12.5125Z" fill="#ED6D09"/>
</g>
<defs>
<clipPath id="clip0_236_719">
<rect width="44" height="44" fill="white"/>
</clipPath>
</defs>
</svg>
