<svg width="44" height="44" viewBox="0 0 44 44" fill="none" xmlns="http://www.w3.org/2000/svg">
<g clip-path="url(#clip0_309_1675)">
<path d="M0.145508 29.2189H19.7404V37.5541H0.145508V29.2189Z" fill="#ED6D09"/>
<path d="M0.145508 40.1324H19.7404V44H0.145508V40.1324Z" fill="#ED6D09"/>
<path d="M4.08105 16.7728H15.8054V20.1953H4.08105V16.7728Z" fill="#ED6D09"/>
<path d="M0.145508 22.7736H19.7404V26.6407H0.145508V22.7736Z" fill="#ED6D09"/>
<path d="M3.75827 3.03821C1.70754 3.03821 0.0390625 4.7066 0.0390625 6.75732C0.0390625 8.80814 1.70745 10.4766 3.75827 10.4766H8.56338V3.03821H3.75827Z" fill="#ED6D09"/>
<path d="M11.0557 0H15.8057V13.5149H11.0557V0Z" fill="#ED6D09"/>
<path d="M39.5658 8.04647V5.46826H36.8666C36.3412 4.05107 34.9758 3.03821 33.3781 3.03821H18.3564V10.4766H33.3781C34.9758 10.4766 36.3412 9.46376 36.8666 8.04647H39.5658Z" fill="#ED6D09"/>
<path d="M41.0619 12.8281L40.1001 11.409L39.1383 12.8281C38.4583 13.8316 36.2393 17.2387 36.2393 18.9528C36.2393 21.0817 37.9712 22.8136 40.1001 22.8136C42.229 22.8136 43.9609 21.0817 43.9609 18.9528C43.9609 17.2387 41.742 13.8315 41.0619 12.8281Z" fill="#ED6D09"/>
</g>
<defs>
<clipPath id="clip0_309_1675">
<rect width="44" height="44" fill="white"/>
</clipPath>
</defs>
</svg>
