<svg width="44" height="44" viewBox="0 0 44 44" fill="none" xmlns="http://www.w3.org/2000/svg">
<g clip-path="url(#clip0_237_813)">
<path d="M7.89648 22.8843H36.1036V26.064H7.89648V22.8843Z" fill="#ED6D09"/>
<path d="M22.0002 14.4436C25.444 14.4436 28.3023 16.9947 28.787 20.3062H33.9749C33.4661 14.1453 28.2901 9.28735 22.0002 9.28735C15.7102 9.28735 10.5342 14.1453 10.0254 20.3062H15.2133C15.698 16.9947 18.5563 14.4436 22.0002 14.4436Z" fill="#ED6D09"/>
<path d="M17.8359 20.3062H26.163C25.7122 18.4248 24.0171 17.0217 21.9995 17.0217C19.982 17.0217 18.2869 18.4247 17.8359 20.3062Z" fill="#ED6D09"/>
<path d="M20.7109 0H23.2891V3.86005H20.7109V0Z" fill="#ED6D09"/>
<path d="M12.0439 4.8634L13.8667 3.04067L16.5957 5.76973L14.773 7.59246L12.0439 4.8634Z" fill="#ED6D09"/>
<path d="M27.3975 5.771L30.1265 3.04194L31.9493 4.86467L29.2202 7.59373L27.3975 5.771Z" fill="#ED6D09"/>
<path d="M1.85938 44H9.26091L10.1203 41.1656H33.8787L34.7381 44H42.1397V37.8141H1.85938V44Z" fill="#ED6D09"/>
<path d="M41.4219 28.5562V25.7786H38.8438V28.5562H0.773438H0V35.3218H0.773438H44V28.5562H41.4219Z" fill="#ED6D09"/>
</g>
<defs>
<clipPath id="clip0_237_813">
<rect width="44" height="44" fill="white"/>
</clipPath>
</defs>
</svg>
