<svg width="44" height="44" viewBox="0 0 44 44" fill="none" xmlns="http://www.w3.org/2000/svg">
<g clip-path="url(#clip0_187_1049)">
<path d="M7.73438 10.3125C10.5821 10.3125 12.8906 8.00397 12.8906 5.15625C12.8906 2.30853 10.5821 0 7.73438 0C4.88666 0 2.57812 2.30853 2.57812 5.15625C2.57812 8.00397 4.88666 10.3125 7.73438 10.3125Z" fill="#ED6D09"/>
<path d="M0 16.7578V18.0469H15.4688V16.7578C15.4688 13.204 12.5784 10.3125 9.02344 10.3125H6.44531C2.89034 10.3125 0 13.204 0 16.7578Z" fill="#ED6D09"/>
<path d="M36.2656 36.2656C39.1133 36.2656 41.4219 33.9571 41.4219 31.1094C41.4219 28.2617 39.1133 25.9531 36.2656 25.9531C33.4179 25.9531 31.1094 28.2617 31.1094 31.1094C31.1094 33.9571 33.4179 36.2656 36.2656 36.2656Z" fill="#ED6D09"/>
<path d="M37.5547 36.2656H34.9766C31.4216 36.2656 28.5312 39.1572 28.5312 42.7109V44H44V42.7109C44 39.1572 41.1097 36.2656 37.5547 36.2656Z" fill="#ED6D09"/>
<path d="M18.0469 18.0469H34.4428L37.5547 21.1588L40.6666 18.0469H44V0H18.0469V18.0469ZM23.2031 5.15625H38.8438V7.73438H23.2031V5.15625ZM23.2031 10.3125H33.6875V12.8906H23.2031V10.3125Z" fill="#ED6D09"/>
<path d="M6.44531 22.8412L3.33343 25.9531H0V43.9999H25.9531V25.9531H9.5572L6.44531 22.8412ZM15.6406 38.8437H5.15625V36.2656H15.6406V38.8437ZM20.7969 33.6874H5.15625V31.1093H20.7969V33.6874Z" fill="#ED6D09"/>
</g>
<defs>
<clipPath id="clip0_187_1049">
<rect width="44" height="44" fill="white"/>
</clipPath>
</defs>
</svg>
