<svg width="44" height="44" viewBox="0 0 44 44" fill="none" xmlns="http://www.w3.org/2000/svg">
<g clip-path="url(#clip0_236_700)">
<path d="M0 0V33.5156H33.5156V0H0ZM7.73438 28.3594H5.15625V25.7812H7.73438V28.3594ZM7.73438 23.2031H5.15625V20.625H7.73438V23.2031ZM7.73438 18.0469H5.15625V15.4688H7.73438V18.0469ZM7.73438 12.8906H5.15625V10.3125H7.73438V12.8906ZM7.73438 7.73438H5.15625V5.15625H7.73438V7.73438ZM12.8906 28.3594H10.3125V25.7812H12.8906V28.3594ZM12.8906 23.2031H10.3125V20.625H12.8906V23.2031ZM12.8906 18.0469H10.3125V15.4688H12.8906V18.0469ZM12.8906 12.8906H10.3125V10.3125H12.8906V12.8906ZM12.8906 7.73438H10.3125V5.15625H12.8906V7.73438ZM18.0469 28.3594H15.4688V25.7812H18.0469V28.3594ZM18.0469 23.2031H15.4688V20.625H18.0469V23.2031ZM18.0469 18.0469H15.4688V15.4688H18.0469V18.0469ZM18.0469 12.8906H15.4688V10.3125H18.0469V12.8906ZM18.0469 7.73438H15.4688V5.15625H18.0469V7.73438ZM23.2031 28.3594H20.625V25.7812H23.2031V28.3594ZM23.2031 23.2031H20.625V20.625H23.2031V23.2031ZM23.2031 18.0469H20.625V15.4688H23.2031V18.0469ZM23.2031 12.8906H20.625V10.3125H23.2031V12.8906ZM23.2031 7.73438H20.625V5.15625H23.2031V7.73438ZM28.3594 28.3594H25.7812V25.7812H28.3594V28.3594ZM28.3594 23.2031H25.7812V20.625H28.3594V23.2031ZM28.3594 18.0469H25.7812V15.4688H28.3594V18.0469ZM28.3594 12.8906H25.7812V10.3125H28.3594V12.8906ZM28.3594 7.73438H25.7812V5.15625H28.3594V7.73438Z" fill="#ED6D09"/>
<path d="M36.0938 5.15625V36.0938H5.15625V38.6719H38.6719V5.15625H36.0938Z" fill="#ED6D09"/>
<path d="M41.4219 10.3125V41.4219H10.3125V44H44V10.3125H41.4219Z" fill="#ED6D09"/>
</g>
<defs>
<clipPath id="clip0_236_700">
<rect width="44" height="44" fill="white"/>
</clipPath>
</defs>
</svg>
