<svg width="44" height="44" viewBox="0 0 44 44" fill="none" xmlns="http://www.w3.org/2000/svg">
<g clip-path="url(#clip0_186_877)">
<path d="M40.311 36.4375L43.669 32.5199C44.0185 32.1122 44.0986 31.5383 43.8742 31.0504C43.6498 30.5626 43.162 30.25 42.625 30.25H1.37502C0.837995 30.25 0.350214 30.5626 0.125831 31.0504C-0.0985518 31.5382 -0.0184581 32.1121 0.33105 32.5199L3.68906 36.4375L0.33105 40.3551C-0.0184581 40.7628 -0.0985518 41.3367 0.125831 41.8246C0.350214 42.3124 0.838081 42.625 1.37502 42.625H42.625C43.162 42.625 43.6498 42.3124 43.8742 41.8246C44.0986 41.3368 44.0185 40.7629 43.669 40.3551L40.311 36.4375Z" fill="#ED6D09"/>
<path d="M31.625 14.4375H30.25C29.4906 14.4375 28.875 15.0531 28.875 15.8125V21.3125C28.875 22.0719 29.4906 22.6875 30.25 22.6875H31.625C32.3844 22.6875 33 22.0719 33 21.3125V15.8125C33 15.0531 32.3844 14.4375 31.625 14.4375Z" fill="#ED6D09"/>
<path d="M2.99013 23.3028L2.45328 27.7243C2.40146 28.1514 2.55288 28.5766 2.85942 28.875H41.1407C41.4472 28.5766 41.5988 28.1514 41.5469 27.7243L41.01 23.3028L42.5894 19.1383C42.7495 18.7157 42.692 18.2415 42.4353 17.8696L39.9052 14.2041L39.3683 9.78263C39.3139 9.33404 39.0425 8.94087 38.6423 8.73093L34.6986 6.66104L32.1684 2.99554C31.9117 2.62361 31.4887 2.40163 31.0369 2.40163H26.5829L22.6391 0.331653C22.2391 0.121708 21.7612 0.121708 21.3612 0.331653L17.4173 2.40154H12.9634C12.5115 2.40154 12.0884 2.62352 11.8318 2.99546L9.30164 6.66095L5.35788 8.73084C4.95776 8.94079 4.68637 9.33404 4.63188 9.78254L4.09503 14.204L1.56494 17.8695C1.30825 18.2414 1.25067 18.7157 1.41086 19.1382L2.99022 23.3027L2.99013 23.3028ZM26.1251 15.8125C26.1251 13.538 27.9756 11.6875 30.2501 11.6875H31.6251C33.8996 11.6875 35.7501 13.538 35.7501 15.8125V21.3125C35.7501 23.587 33.8996 25.4375 31.6251 25.4375H30.2501C27.9756 25.4375 26.1251 23.587 26.1251 21.3125V15.8125ZM14.4376 15.125C14.4376 13.2296 15.9797 11.6875 17.8751 11.6875H23.3751V14.4375H17.8751C17.496 14.4375 17.1876 14.746 17.1876 15.125V16.5C17.1876 16.8791 17.496 17.1875 17.8751 17.1875H20.6251C22.5205 17.1875 24.0626 18.7296 24.0626 20.625V22C24.0626 23.8955 22.5205 25.4375 20.6251 25.4375H15.1251V22.6875H20.6251C21.0042 22.6875 21.3126 22.3791 21.3126 22V20.625C21.3126 20.246 21.0042 19.9375 20.6251 19.9375H17.8751C15.9797 19.9375 14.4376 18.3955 14.4376 16.5V15.125ZM9.62511 11.6875H12.3751V25.4375H9.62511V11.6875Z" fill="#ED6D09"/>
</g>
<defs>
<clipPath id="clip0_186_877">
<rect width="44" height="44" fill="white"/>
</clipPath>
</defs>
</svg>
