<svg width="44" height="44" viewBox="0 0 44 44" fill="none" xmlns="http://www.w3.org/2000/svg">
<path d="M40.9062 12.375V33C40.9065 33.4966 40.8089 33.9885 40.619 34.4474C40.4291 34.9063 40.1506 35.3232 39.7994 35.6744C39.4482 36.0256 39.0312 36.3041 38.5724 36.494C38.1135 36.6839 37.6216 36.7815 37.125 36.7812H32.8214C34.2829 34.7827 35.1624 32.4184 35.3624 29.9506C35.5624 27.4827 35.0751 25.0077 33.9545 22.7999C32.8338 20.5921 31.1237 18.7377 29.0136 17.4424C26.9035 16.1471 24.4759 15.4614 22 15.4614C19.5241 15.4614 17.0965 16.1471 14.9864 17.4424C12.8763 18.7377 11.1662 20.5921 10.0455 22.7999C8.9249 25.0077 8.43756 27.4827 8.63756 29.9506C8.83755 32.4184 9.71706 34.7827 11.1786 36.7812H6.875C6.37836 36.7815 5.88653 36.6839 5.42764 36.494C4.96875 36.3041 4.55179 36.0256 4.20062 35.6744C3.84944 35.3232 3.57092 34.9063 3.381 34.4474C3.19108 33.9885 3.09347 33.4966 3.09375 33V12.375C3.09574 12.1021 3.20503 11.841 3.398 11.648C3.59097 11.455 3.85211 11.3457 4.125 11.3438H39.875C40.1479 11.3457 40.4091 11.455 40.6021 11.6479C40.795 11.8409 40.9043 12.1021 40.9062 12.375Z" fill="#ED6D09"/>
<path d="M39.875 13.4062H4.125C3.85152 13.4062 3.58926 13.2975 3.39588 13.1041C3.2025 12.9107 3.09382 12.6485 3.09375 12.375V6.875C3.09477 5.87246 3.49348 4.91128 4.20238 4.20238C4.91128 3.49348 5.87246 3.09477 6.875 3.09375H37.125C38.1275 3.09477 39.0887 3.49348 39.7976 4.20238C40.5065 4.91128 40.9052 5.87246 40.9062 6.875V12.375C40.9062 12.6485 40.7975 12.9107 40.6041 13.1041C40.4107 13.2975 40.1485 13.4062 39.875 13.4062ZM5.15625 11.3438H38.8438V6.875C38.8433 6.41929 38.6621 5.98236 38.3399 5.66013C38.0176 5.33789 37.5807 5.15667 37.125 5.15625H6.875C6.41929 5.15667 5.98236 5.33789 5.66013 5.66013C5.33789 5.98236 5.15667 6.41929 5.15625 6.875V11.3438Z" fill="#ED6D09"/>
<path d="M9.625 7.90625C9.35152 7.90618 9.08926 7.7975 8.89588 7.60412C8.7025 7.41074 8.59382 7.14848 8.59375 6.875V2.75C8.59375 2.4765 8.7024 2.21419 8.8958 2.0208C9.08919 1.8274 9.3515 1.71875 9.625 1.71875C9.8985 1.71875 10.1608 1.8274 10.3542 2.0208C10.5476 2.21419 10.6562 2.4765 10.6562 2.75V6.875C10.6562 7.14848 10.5475 7.41074 10.3541 7.60412C10.1607 7.7975 9.89848 7.90618 9.625 7.90625Z" fill="#ED6D09"/>
<path d="M9.625 9.28125C10.5742 9.28125 11.3438 8.51174 11.3438 7.5625C11.3438 6.61326 10.5742 5.84375 9.625 5.84375C8.67576 5.84375 7.90625 6.61326 7.90625 7.5625C7.90625 8.51174 8.67576 9.28125 9.625 9.28125Z" fill="#ED6D09"/>
<path d="M9.625 7.90625C9.35152 7.90618 9.08926 7.7975 8.89588 7.60412C8.7025 7.41074 8.59382 7.14848 8.59375 6.875V2.75C8.59375 2.4765 8.7024 2.21419 8.8958 2.0208C9.08919 1.8274 9.3515 1.71875 9.625 1.71875C9.8985 1.71875 10.1608 1.8274 10.3542 2.0208C10.5476 2.21419 10.6562 2.4765 10.6562 2.75V6.875C10.6562 7.14848 10.5475 7.41074 10.3541 7.60412C10.1607 7.7975 9.89848 7.90618 9.625 7.90625Z" fill="#ED6D09"/>
<path d="M9.625 9.28125C10.5742 9.28125 11.3438 8.51174 11.3438 7.5625C11.3438 6.61326 10.5742 5.84375 9.625 5.84375C8.67576 5.84375 7.90625 6.61326 7.90625 7.5625C7.90625 8.51174 8.67576 9.28125 9.625 9.28125Z" fill="#ED6D09"/>
<path d="M17.875 7.90625C17.6015 7.90618 17.3393 7.7975 17.1459 7.60412C16.9525 7.41074 16.8438 7.14848 16.8438 6.875V2.75C16.8438 2.4765 16.9524 2.21419 17.1458 2.0208C17.3392 1.8274 17.6015 1.71875 17.875 1.71875C18.1485 1.71875 18.4108 1.8274 18.6042 2.0208C18.7976 2.21419 18.9062 2.4765 18.9062 2.75V6.875C18.9062 7.14848 18.7975 7.41074 18.6041 7.60412C18.4107 7.7975 18.1485 7.90618 17.875 7.90625Z" fill="#ED6D09"/>
<path d="M17.875 9.28125C18.8242 9.28125 19.5938 8.51174 19.5938 7.5625C19.5938 6.61326 18.8242 5.84375 17.875 5.84375C16.9258 5.84375 16.1562 6.61326 16.1562 7.5625C16.1562 8.51174 16.9258 9.28125 17.875 9.28125Z" fill="#ED6D09"/>
<path d="M26.125 7.90625C25.8515 7.90618 25.5893 7.7975 25.3959 7.60412C25.2025 7.41074 25.0938 7.14848 25.0938 6.875V2.75C25.0938 2.4765 25.2024 2.21419 25.3958 2.0208C25.5892 1.8274 25.8515 1.71875 26.125 1.71875C26.3985 1.71875 26.6608 1.8274 26.8542 2.0208C27.0476 2.21419 27.1562 2.4765 27.1562 2.75V6.875C27.1562 7.14848 27.0475 7.41074 26.8541 7.60412C26.6607 7.7975 26.3985 7.90618 26.125 7.90625Z" fill="#ED6D09"/>
<path d="M26.125 9.28125C27.0742 9.28125 27.8438 8.51174 27.8438 7.5625C27.8438 6.61326 27.0742 5.84375 26.125 5.84375C25.1758 5.84375 24.4062 6.61326 24.4062 7.5625C24.4062 8.51174 25.1758 9.28125 26.125 9.28125Z" fill="#ED6D09"/>
<path d="M34.375 7.90625C34.1015 7.90618 33.8393 7.7975 33.6459 7.60412C33.4525 7.41074 33.3438 7.14848 33.3438 6.875V2.75C33.3438 2.4765 33.4524 2.21419 33.6458 2.0208C33.8392 1.8274 34.1015 1.71875 34.375 1.71875C34.6485 1.71875 34.9108 1.8274 35.1042 2.0208C35.2976 2.21419 35.4062 2.4765 35.4062 2.75V6.875C35.4062 7.14848 35.2975 7.41074 35.1041 7.60412C34.9107 7.7975 34.6485 7.90618 34.375 7.90625Z" fill="#ED6D09"/>
<path d="M34.375 9.28125C35.3242 9.28125 36.0938 8.51174 36.0938 7.5625C36.0938 6.61326 35.3242 5.84375 34.375 5.84375C33.4258 5.84375 32.6562 6.61326 32.6562 7.5625C32.6562 8.51174 33.4258 9.28125 34.375 9.28125Z" fill="#ED6D09"/>
<path d="M22 16.8438C19.6204 16.8438 17.2943 17.5494 15.3158 18.8714C13.3373 20.1934 11.7952 22.0724 10.8846 24.2708C9.97396 26.4693 9.7357 28.8883 10.1999 31.2222C10.6642 33.556 11.81 35.6998 13.4926 37.3824C15.1752 39.065 17.319 40.2108 19.6528 40.6751C21.9867 41.1393 24.4057 40.901 26.6042 39.9904C28.8026 39.0798 30.6816 37.5377 32.0036 35.5592C33.3256 33.5807 34.0313 31.2546 34.0313 28.875C34.0277 25.6852 32.759 22.627 30.5035 20.3715C28.248 18.116 25.1898 16.8473 22 16.8438ZM22 19.5938C22.204 19.5938 22.4033 19.6542 22.5729 19.7675C22.7425 19.8809 22.8747 20.0419 22.9528 20.2304C23.0308 20.4188 23.0512 20.6261 23.0114 20.8262C22.9716 21.0262 22.8734 21.21 22.7292 21.3542C22.585 21.4984 22.4012 21.5966 22.2012 21.6364C22.0012 21.6762 21.7938 21.6558 21.6054 21.5778C21.4169 21.4997 21.2559 21.3675 21.1426 21.1979C21.0292 21.0283 20.9688 20.829 20.9688 20.625C20.9688 20.3515 21.0774 20.0892 21.2708 19.8958C21.4642 19.7024 21.7265 19.5938 22 19.5938ZM13.75 29.9062C13.546 29.9062 13.3467 29.8458 13.1771 29.7325C13.0075 29.6191 12.8753 29.4581 12.7973 29.2696C12.7192 29.0812 12.6988 28.8739 12.7386 28.6738C12.7784 28.4738 12.8766 28.29 13.0208 28.1458C13.165 28.0016 13.3488 27.9034 13.5488 27.8636C13.7489 27.8238 13.9562 27.8442 14.1446 27.9222C14.3331 28.0003 14.4941 28.1325 14.6075 28.3021C14.7208 28.4717 14.7813 28.671 14.7813 28.875C14.7812 29.1485 14.6725 29.4108 14.4792 29.6042C14.2858 29.7975 14.0235 29.9062 13.75 29.9062ZM16.8955 35.4379C16.7512 35.5821 16.5675 35.6803 16.3674 35.7201C16.1674 35.7599 15.96 35.7395 15.7716 35.6614C15.5832 35.5834 15.4221 35.4512 15.3088 35.2816C15.1955 35.112 15.135 34.9126 15.135 34.7087C15.135 34.5047 15.1955 34.3053 15.3088 34.1357C15.4221 33.9661 15.5832 33.834 15.7716 33.7559C15.96 33.6779 16.1674 33.6574 16.3674 33.6972C16.5675 33.737 16.7512 33.8352 16.8955 33.9795C16.9912 34.0752 17.0672 34.1889 17.1191 34.314C17.1709 34.4391 17.1976 34.5732 17.1976 34.7087C17.1976 34.8441 17.1709 34.9782 17.1191 35.1033C17.0672 35.2284 16.9912 35.3421 16.8955 35.4379ZM16.8955 23.7707C16.7512 23.9149 16.5675 24.0131 16.3674 24.0529C16.1674 24.0927 15.96 24.0723 15.7716 23.9942C15.5832 23.9162 15.4221 23.784 15.3088 23.6144C15.1955 23.4448 15.135 23.2454 15.135 23.0415C15.135 22.8375 15.1955 22.6381 15.3088 22.4685C15.4221 22.299 15.5832 22.1668 15.7716 22.0887C15.96 22.0107 16.1674 21.9902 16.3674 22.03C16.5675 22.0698 16.7512 22.168 16.8955 22.3123C16.9912 22.408 17.0672 22.5217 17.119 22.6468C17.1708 22.7719 17.1975 22.906 17.1975 23.0414C17.1975 23.1769 17.1708 23.311 17.119 23.4361C17.0672 23.5612 16.9912 23.6749 16.8955 23.7707ZM22 38.1562C21.796 38.1562 21.5967 38.0958 21.4271 37.9825C21.2575 37.8691 21.1253 37.7081 21.0473 37.5196C20.9692 37.3312 20.9488 37.1239 20.9886 36.9238C21.0284 36.7238 21.1266 36.54 21.2708 36.3958C21.415 36.2516 21.5988 36.1534 21.7988 36.1136C21.9989 36.0738 22.2062 36.0942 22.3946 36.1722C22.5831 36.2503 22.7441 36.3825 22.8575 36.5521C22.9708 36.7217 23.0313 36.921 23.0313 37.125C23.0312 37.3985 22.9225 37.6608 22.7292 37.8542C22.5358 38.0475 22.2735 38.1562 22 38.1562ZM25.322 33.858C25.2093 33.9331 25.083 33.9853 24.9501 34.0116C24.8173 34.0379 24.6806 34.0377 24.5478 34.0112C24.415 33.9846 24.2887 33.9322 24.1762 33.8568C24.0637 33.7815 23.9671 33.6847 23.892 33.572L21.142 29.447C21.0291 29.2776 20.9688 29.0786 20.9688 28.875V24.75C20.9688 24.4765 21.0774 24.2142 21.2708 24.0208C21.4642 23.8274 21.7265 23.7188 22 23.7188C22.2735 23.7188 22.5358 23.8274 22.7292 24.0208C22.9226 24.2142 23.0313 24.4765 23.0313 24.75V28.5629L25.608 32.428C25.7596 32.6556 25.8147 32.9341 25.7611 33.2022C25.7074 33.4704 25.5495 33.7062 25.322 33.858ZM28.5629 35.4379C28.4187 35.5821 28.2349 35.6803 28.0349 35.7201C27.8348 35.7599 27.6275 35.7395 27.439 35.6614C27.2506 35.5834 27.0895 35.4512 26.9762 35.2816C26.8629 35.112 26.8024 34.9126 26.8024 34.7087C26.8024 34.5047 26.8629 34.3053 26.9762 34.1357C27.0895 33.9661 27.2506 33.834 27.439 33.7559C27.6275 33.6779 27.8348 33.6574 28.0349 33.6972C28.2349 33.737 28.4187 33.8352 28.5629 33.9795C28.6587 34.0752 28.7347 34.1889 28.7865 34.314C28.8383 34.4391 28.865 34.5732 28.865 34.7087C28.865 34.8441 28.8383 34.9782 28.7865 35.1033C28.7347 35.2284 28.6587 35.3421 28.5629 35.4379ZM28.5629 23.7707C28.4187 23.9149 28.2349 24.0131 28.0349 24.0529C27.8348 24.0927 27.6275 24.0723 27.439 23.9942C27.2506 23.9162 27.0895 23.784 26.9762 23.6144C26.8629 23.4448 26.8024 23.2454 26.8024 23.0415C26.8024 22.8375 26.8629 22.6381 26.9762 22.4685C27.0895 22.299 27.2506 22.1668 27.439 22.0887C27.6275 22.0107 27.8348 21.9902 28.0349 22.03C28.2349 22.0698 28.4187 22.168 28.5629 22.3123C28.6586 22.408 28.7346 22.5217 28.7864 22.6468C28.8383 22.7719 28.8649 22.906 28.8649 23.0414C28.8649 23.1769 28.8383 23.311 28.7864 23.4361C28.7346 23.5612 28.6586 23.6749 28.5629 23.7707ZM30.25 29.9062C30.046 29.9062 29.8467 29.8458 29.6771 29.7325C29.5075 29.6191 29.3753 29.4581 29.2973 29.2696C29.2192 29.0812 29.1988 28.8739 29.2386 28.6738C29.2784 28.4738 29.3766 28.29 29.5208 28.1458C29.665 28.0016 29.8488 27.9034 30.0488 27.8636C30.2489 27.8238 30.4562 27.8442 30.6446 27.9222C30.8331 28.0003 30.9941 28.1325 31.1075 28.3021C31.2208 28.4717 31.2813 28.671 31.2813 28.875C31.2812 29.1485 31.1725 29.4108 30.9792 29.6042C30.7858 29.7975 30.5235 29.9062 30.25 29.9062Z" fill="#ED6D09"/>
</svg>
