<svg width="44" height="44" viewBox="0 0 44 44" fill="none" xmlns="http://www.w3.org/2000/svg">
<g clip-path="url(#clip0_187_1044)">
<path d="M38.4662 15.9323C38.2245 15.6905 37.8965 15.5547 37.5547 15.5547H1.28904C0.813635 15.5547 0.376815 15.8164 0.152518 16.2355C-0.0717788 16.6547 -0.0472007 17.1633 0.216456 17.5588L3.17726 22L0.216456 26.4412C-0.0472007 26.8368 -0.0717788 27.3454 0.152518 27.7645C0.376815 28.1836 0.813635 28.4453 1.28904 28.4453H37.5547C37.8965 28.4453 38.2244 28.3095 38.4661 28.0677L43.6224 22.9115C44.1258 22.4081 44.1258 21.5919 43.6224 21.0885L38.4662 15.9323ZM32.3125 23.2891H11.6875C10.9756 23.2891 10.3984 22.7119 10.3984 22C10.3984 21.2881 10.9756 20.7109 11.6875 20.7109H32.3125C33.0244 20.7109 33.6015 21.2881 33.6015 22C33.6015 22.7119 33.0244 23.2891 32.3125 23.2891Z" fill="#ED6D09"/>
<path d="M0.152518 12.2098C0.376815 12.6289 0.813635 12.8906 1.28904 12.8906H37.5547C37.8965 12.8906 38.2244 12.7548 38.4661 12.513L43.6224 7.35677C44.1258 6.85343 44.1258 6.0372 43.6224 5.53377L38.4661 0.377523C38.2245 0.135781 37.8965 0 37.5547 0H1.28904C0.813635 0 0.376815 0.26168 0.152518 0.680797C-0.0717788 1.1 -0.0472007 1.60858 0.216456 2.00406L3.17726 6.44531L0.216456 10.8866C-0.0472007 11.282 -0.0717788 11.7906 0.152518 12.2098ZM11.6875 5.15625H32.3125C33.0244 5.15625 33.6015 5.73341 33.6015 6.44531C33.6015 7.15722 33.0244 7.73438 32.3125 7.73438H11.6875C10.9756 7.73438 10.3984 7.15722 10.3984 6.44531C10.3984 5.73341 10.9756 5.15625 11.6875 5.15625Z" fill="#ED6D09"/>
<path d="M38.4662 31.487C38.2245 31.2452 37.8965 31.1094 37.5547 31.1094H1.28904C0.813635 31.1094 0.376815 31.3711 0.152518 31.7902C-0.0717788 32.2094 -0.0472007 32.718 0.216456 33.1134L3.17726 37.5547L0.216456 41.9959C-0.0472007 42.3915 -0.0717788 42.9001 0.152518 43.3192C0.376815 43.7383 0.813635 44 1.28904 44H37.5547C37.8965 44 38.2244 43.8642 38.4661 43.6224L43.6224 38.4661C44.1258 37.9628 44.1258 37.1466 43.6224 36.6431L38.4662 31.487ZM32.3125 38.8438H11.6875C10.9756 38.8438 10.3984 38.2666 10.3984 37.5547C10.3984 36.8428 10.9756 36.2656 11.6875 36.2656H32.3125C33.0244 36.2656 33.6015 36.8428 33.6015 37.5547C33.6015 38.2666 33.0244 38.8438 32.3125 38.8438Z" fill="#ED6D09"/>
</g>
<defs>
<clipPath id="clip0_187_1044">
<rect width="44" height="44" fill="white"/>
</clipPath>
</defs>
</svg>
