<svg width="44" height="44" viewBox="0 0 44 44" fill="none" xmlns="http://www.w3.org/2000/svg">
<path d="M26.7209 17.3804H42.0834L37.8649 23.332H22.5014L26.7209 17.3804ZM4.6218 38.2112H20.3177V24.8201H4.6218V38.2112ZM15.4055 17.3804H0.0429688L4.26241 23.332H19.6231L15.4055 17.3804ZM26.7962 11.0347C26.6734 10.7739 26.4111 10.6075 26.1228 10.6075H23.7136V6.00378C23.7136 5.59274 23.3804 5.25956 22.9694 5.25956H19.1573C18.7462 5.25956 18.4131 5.59274 18.4131 6.00378V10.6075H16.0039C15.7156 10.6075 15.4534 10.7739 15.3306 11.0347C15.2078 11.2954 15.2466 11.6036 15.4303 11.8258L20.4884 17.9457C20.6297 18.1168 20.84 18.2158 21.0619 18.2158H21.062C21.2839 18.2158 21.4942 18.1168 21.6355 17.9458L26.6963 11.826C26.88 11.6038 26.919 11.2956 26.7962 11.0347ZM6.42331 14.0731C6.56468 14.2442 6.77497 14.3431 6.99686 14.3431C7.21875 14.3431 7.42904 14.2441 7.57041 14.0731L12.6311 7.95336C12.8147 7.73121 12.8537 7.42296 12.731 7.16214C12.6081 6.90131 12.3459 6.73485 12.0575 6.73485H9.64838V2.13118C9.64838 1.72014 9.3152 1.38696 8.90416 1.38696H5.08948C4.67844 1.38696 4.34526 1.72014 4.34526 2.13118V6.73485H1.936C1.64777 6.73485 1.3854 6.90131 1.26259 7.16214C1.13988 7.42296 1.17872 7.73121 1.36245 7.95336L6.42331 14.0731ZM34.5564 14.0731C34.6978 14.2441 34.9081 14.3431 35.13 14.3431C35.3519 14.3431 35.5621 14.2441 35.7035 14.0731L40.7642 7.95336C40.9479 7.73121 40.9868 7.42296 40.8641 7.16214C40.7412 6.90131 40.4789 6.73485 40.1906 6.73485H37.7816V2.13118C37.7816 1.72014 37.4484 1.38696 37.0373 1.38696H33.2226C32.8115 1.38696 32.4784 1.72014 32.4784 2.13118V6.73485H30.0692C29.781 6.73485 29.5186 6.90131 29.3958 7.16214C29.2731 7.42296 29.3119 7.73121 29.4956 7.95336L34.5564 14.0731ZM43.957 36.9056C43.957 40.0532 41.3962 42.6131 38.2495 42.6131C35.1019 42.6131 32.542 40.0532 32.542 36.9056C32.542 33.759 35.1019 31.1981 38.2495 31.1981C41.3962 31.1981 43.957 33.7589 43.957 36.9056ZM41.412 34.1315C41.0833 33.8847 40.6167 33.9518 40.3699 34.2805L37.579 38.0008L36.0192 36.6561C35.7082 36.387 35.2379 36.4224 34.9698 36.7334C34.7006 37.0444 34.736 37.5147 35.047 37.7829L37.2103 39.6481C37.3453 39.7654 37.5185 39.8288 37.6955 39.8288C37.7224 39.8288 37.7494 39.8269 37.7755 39.8241C37.9814 39.8027 38.1676 39.6966 38.2914 39.5308L41.561 35.1736C41.8068 34.8447 41.7407 34.3782 41.412 34.1315ZM37.5045 29.7481V24.8201H21.8059V38.2111H31.1722C31.094 37.7884 31.053 37.3516 31.053 36.9055C31.053 33.189 33.8848 30.1225 37.5045 29.7481Z" fill="#ED6D09"/>
</svg>
