<svg width="44" height="44" viewBox="0 0 44 44" fill="none" xmlns="http://www.w3.org/2000/svg">
<path d="M38.1332 30.8H35.4309C35.1095 31.4762 34.6451 32.0744 34.0698 32.5534C35.2493 32.9357 36.2776 33.6814 37.0075 34.6837C37.7374 35.686 38.1314 36.8935 38.1332 38.1334V39.6H41.7999C41.9944 39.6 42.1809 39.5228 42.3184 39.3853C42.456 39.2477 42.5332 39.0612 42.5332 38.8667V35.2C42.5321 34.0335 42.0681 32.915 41.2432 32.0901C40.4183 31.2652 39.2998 30.8012 38.1332 30.8Z" fill="#ED6D09"/>
<path d="M2.20013 33.7333H17.793C18.0414 32.7781 18.526 31.9007 19.2024 31.1819C19.8788 30.4631 20.7251 29.926 21.6635 29.6201C20.8503 28.9466 20.2646 28.0387 19.9862 27.0201C19.7078 26.0016 19.7503 24.922 20.1078 23.9285C20.4654 22.935 21.1205 22.0759 21.9841 21.4683C22.8477 20.8608 23.8776 20.5343 24.9335 20.5333V2.20001C24.9335 2.00552 24.8562 1.81899 24.7187 1.68146C24.5812 1.54394 24.3946 1.46667 24.2001 1.46667H9.53346V6.60001C9.53346 7.37798 9.22442 8.12408 8.67431 8.67419C8.1242 9.2243 7.3781 9.53334 6.60013 9.53334H1.4668V33C1.4668 33.1945 1.54406 33.381 1.68159 33.5186C1.81911 33.6561 2.00564 33.7333 2.20013 33.7333ZM11.7335 10.2667H21.2668C21.4613 10.2667 21.6478 10.3439 21.7853 10.4815C21.9229 10.619 22.0001 10.8055 22.0001 11C22.0001 11.1945 21.9229 11.381 21.7853 11.5186C21.6478 11.6561 21.4613 11.7333 21.2668 11.7333H11.7335C11.539 11.7333 11.3524 11.6561 11.2149 11.5186C11.0774 11.381 11.0001 11.1945 11.0001 11C11.0001 10.8055 11.0774 10.619 11.2149 10.4815C11.3524 10.3439 11.539 10.2667 11.7335 10.2667ZM5.13346 14.6667H21.2668C21.4613 14.6667 21.6478 14.7439 21.7853 14.8815C21.9229 15.019 22.0001 15.2055 22.0001 15.4C22.0001 15.5945 21.9229 15.781 21.7853 15.9186C21.6478 16.0561 21.4613 16.1333 21.2668 16.1333H5.13346C4.93897 16.1333 4.75245 16.0561 4.61492 15.9186C4.47739 15.781 4.40013 15.5945 4.40013 15.4C4.40013 15.2055 4.47739 15.019 4.61492 14.8815C4.75245 14.7439 4.93897 14.6667 5.13346 14.6667ZM5.13346 19.0667H20.5335C20.728 19.0667 20.9145 19.1439 21.052 19.2815C21.1895 19.419 21.2668 19.6055 21.2668 19.8C21.2668 19.9945 21.1895 20.181 21.052 20.3186C20.9145 20.4561 20.728 20.5333 20.5335 20.5333H5.13346C4.93897 20.5333 4.75245 20.4561 4.61492 20.3186C4.47739 20.181 4.40013 19.9945 4.40013 19.8C4.40013 19.6055 4.47739 19.419 4.61492 19.2815C4.75245 19.1439 4.93897 19.0667 5.13346 19.0667ZM5.13346 23.4667H17.6001C17.7946 23.4667 17.9811 23.5439 18.1187 23.6815C18.2562 23.819 18.3335 24.0055 18.3335 24.2C18.3335 24.3945 18.2562 24.581 18.1187 24.7186C17.9811 24.8561 17.7946 24.9333 17.6001 24.9333H5.13346C4.93897 24.9333 4.75245 24.8561 4.61492 24.7186C4.47739 24.581 4.40013 24.3945 4.40013 24.2C4.40013 24.0055 4.47739 23.819 4.61492 23.6815C4.75245 23.5439 4.93897 23.4667 5.13346 23.4667ZM5.13346 27.8667H17.6001C17.7946 27.8667 17.9811 27.9439 18.1187 28.0815C18.2562 28.219 18.3335 28.4055 18.3335 28.6C18.3335 28.7945 18.2562 28.981 18.1187 29.1186C17.9811 29.2561 17.7946 29.3333 17.6001 29.3333H5.13346C4.93897 29.3333 4.75245 29.2561 4.61492 29.1186C4.47739 28.981 4.40013 28.7945 4.40013 28.6C4.40013 28.4055 4.47739 28.219 4.61492 28.0815C4.75245 27.9439 4.93897 27.8667 5.13346 27.8667Z" fill="#ED6D09"/>
<path d="M19.0669 35.2V38.8667C19.0669 39.0612 19.1442 39.2477 19.2817 39.3853C19.4192 39.5228 19.6057 39.6 19.8002 39.6H23.4669V38.1334C23.4687 36.8935 23.8628 35.686 24.5926 34.6837C25.3225 33.6814 26.3508 32.9357 27.5303 32.5534C26.955 32.0744 26.4906 31.4762 26.1692 30.8H23.4669C22.3003 30.8012 21.1818 31.2652 20.3569 32.0901C19.532 32.915 19.0681 34.0335 19.0669 35.2Z" fill="#ED6D09"/>
<path d="M6.59982 8.06661C6.9888 8.06661 7.36185 7.91208 7.63691 7.63703C7.91196 7.36198 8.06648 6.98892 8.06648 6.59994V2.50354L2.50342 8.06661H6.59982Z" fill="#ED6D09"/>
<path d="M36.6665 29.3333C37.3248 29.3333 37.9709 29.156 38.537 28.82C39.1032 28.4841 39.5684 28.002 39.884 27.4243C40.1995 26.8466 40.3537 26.1946 40.3304 25.5367C40.3071 24.8788 40.107 24.2394 39.7514 23.6855C39.3957 23.1315 38.8974 22.6836 38.3089 22.3886C37.7204 22.0937 37.0633 21.9626 36.4067 22.0092C35.7501 22.0557 35.1181 22.2782 34.5771 22.6532C34.0361 23.0283 33.606 23.542 33.332 24.1406C34.2355 24.6428 34.9634 25.4097 35.418 26.3381C35.8725 27.2664 36.0318 28.3117 35.8745 29.3333H36.6665Z" fill="#ED6D09"/>
<path d="M28.2678 24.1406C27.9938 23.542 27.5637 23.0283 27.0227 22.6532C26.4817 22.2782 25.8497 22.0557 25.1931 22.0092C24.5364 21.9626 23.8794 22.0937 23.2909 22.3886C22.7024 22.6836 22.2041 23.1315 21.8484 23.6855C21.4927 24.2394 21.2927 24.8788 21.2694 25.5367C21.2461 26.1946 21.4003 26.8466 21.7158 27.4243C22.0314 28.002 22.4966 28.4841 23.0628 28.82C23.6289 29.156 24.275 29.3333 24.9333 29.3333H25.7253C25.568 28.3117 25.7273 27.2664 26.1818 26.3381C26.6364 25.4097 27.3643 24.6428 28.2678 24.1406Z" fill="#ED6D09"/>
<path d="M30.8 32.2667C32.825 32.2667 34.4666 30.6251 34.4666 28.6C34.4666 26.575 32.825 24.9333 30.8 24.9333C28.7749 24.9333 27.1333 26.575 27.1333 28.6C27.1333 30.6251 28.7749 32.2667 30.8 32.2667Z" fill="#ED6D09"/>
<path d="M25.6664 42.5333H35.9331C36.1276 42.5333 36.3141 42.456 36.4517 42.3185C36.5892 42.181 36.6664 41.9944 36.6664 41.7999V38.1333C36.6653 36.9667 36.2013 35.8482 35.3764 35.0233C34.5515 34.1984 33.433 33.7344 32.2664 33.7333H29.3331C28.1665 33.7344 27.048 34.1984 26.2231 35.0233C25.3982 35.8482 24.9343 36.9667 24.9331 38.1333V41.7999C24.9331 41.9944 25.0104 42.181 25.1479 42.3185C25.2854 42.456 25.4719 42.5333 25.6664 42.5333Z" fill="#ED6D09"/>
</svg>
