<svg width="44" height="44" viewBox="0 0 44 44" fill="none" xmlns="http://www.w3.org/2000/svg">
<path fill-rule="evenodd" clip-rule="evenodd" d="M21.9867 32.1945C21.8578 32.1945 21.7547 32.1945 21.6259 32.1429L1.03066 26.2917C0.43781 26.1371 0.0253906 25.5958 0.0253906 24.9772C0.0253906 24.3585 0.43781 23.8172 1.03066 23.6626L21.6259 17.7856C21.8836 17.7083 22.1414 17.7083 22.3734 17.7856L42.9686 23.6626C43.5614 23.8172 43.9738 24.3585 43.9738 24.9772C43.9738 25.5958 43.5614 26.1371 42.9686 26.2917L22.3734 32.1429C22.2445 32.1945 22.1156 32.1945 21.9867 32.1945Z" fill="#ED6D09"/>
<path fill-rule="evenodd" clip-rule="evenodd" d="M1.05644 34.1792C0.463586 34.0246 0.0253906 33.4833 0.0253906 32.8389V28.8693C0.102719 28.8951 0.180048 28.9209 0.283153 28.9467L20.6206 34.7205V39.7211L1.05644 34.1792ZM23.3786 34.7205L43.7161 28.9467C43.8192 28.9209 43.8965 28.8951 43.9738 28.8693V32.8389C43.9738 33.4833 43.5356 34.0246 42.917 34.1792L23.3786 39.7211V34.7205Z" fill="#ED6D09"/>
<path fill-rule="evenodd" clip-rule="evenodd" d="M32.3745 17.1927C31.9621 17.1927 31.5496 17.0123 31.2919 16.6772C31.1372 16.4968 31.0599 16.2905 31.0341 16.0843L29.2298 9.4083C29.0236 8.68656 29.4618 7.91328 30.1835 7.73284C30.931 7.52663 31.6785 7.96483 31.8847 8.68656L32.8385 12.2695L37.2204 4.6397C37.6071 3.96951 38.4577 3.73753 39.1021 4.12417C39.7723 4.51082 39.9785 5.33565 39.6176 6.00584L35.2099 13.6356L38.767 12.6819C39.5145 12.4757 40.262 12.9139 40.4682 13.6356C40.6487 14.3831 40.2362 15.1306 39.4887 15.3368L32.8385 17.1154C32.8127 17.1412 32.7611 17.1412 32.7354 17.1669C32.658 17.1669 32.5807 17.1927 32.5034 17.1927H32.4776H32.4518H32.426H32.4003H32.3745Z" fill="#ED6D09"/>
<path fill-rule="evenodd" clip-rule="evenodd" d="M11.6503 17.1927H11.6245H11.5988H11.573H11.5472C11.4441 17.1927 11.3668 17.167 11.2895 17.167C11.2379 17.1412 11.2121 17.1412 11.1606 17.1154L4.51031 15.3111C3.78857 15.1306 3.35038 14.3574 3.53081 13.6356C3.73702 12.9139 4.48453 12.4757 5.23204 12.6561L8.78916 13.6356L4.38143 6.00586C3.99478 5.36145 4.22677 4.51084 4.87117 4.12419C5.51558 3.76333 6.36619 3.96954 6.75284 4.63972L11.1606 12.2953L12.1143 8.68658C12.3205 7.96485 13.068 7.52665 13.8155 7.73286C14.5373 7.9133 14.9755 8.66081 14.7692 9.40832L12.9649 16.1875C12.8618 16.5999 12.5783 16.9092 12.2174 17.0639V17.0896C12.0627 17.1412 11.9081 17.1927 11.7534 17.1927H11.7276H11.7019C11.6761 17.1927 11.6503 17.1927 11.6503 17.1927Z" fill="#ED6D09"/>
</svg>
