<svg width="44" height="44" viewBox="0 0 44 44" fill="none" xmlns="http://www.w3.org/2000/svg">
<path d="M17.895 25.3677H31.1282V33.7596H17.895V25.3677Z" fill="#ED6D09"/>
<path d="M9.98353 33.7596V26.7454C9.98353 25.9857 9.36555 25.3676 8.60587 25.3676C7.84618 25.3676 7.22812 25.9857 7.22812 26.7454V27.1754C7.22812 29.3567 5.45359 31.1313 3.27233 31.1313C2.7946 31.1313 2.33647 31.0461 1.91211 30.8902V33.7595L9.98353 33.7596Z" fill="#ED6D09"/>
<path d="M17.7465 36.3377C17.2786 38.0006 15.7494 39.2236 13.939 39.2236C12.1286 39.2236 10.5993 38.0006 10.1314 36.3377H1.91162V44H31.128V36.3377H17.7465Z" fill="#ED6D09"/>
<path d="M33.0402 17.7054V15.1273H28.627V12.1068C28.6269 5.43108 23.1958 0 16.5201 0C9.8444 0 4.41332 5.43108 4.41332 12.1068V15.1273H0V17.7054H1.91185V27.3842C2.01291 28.0448 2.58345 28.5532 3.27198 28.5532C4.03167 28.5532 4.64973 27.9351 4.64973 27.1754V26.7454C4.64973 24.5641 6.42435 22.7895 8.60561 22.7895C10.7869 22.7895 12.5614 24.5641 12.5614 26.7454V35.2677C12.5614 36.0274 13.1795 36.6455 13.9391 36.6455C14.6988 36.6455 15.317 36.0275 15.317 35.2678V15.1273H6.99145V12.1068C6.99145 6.85266 11.266 2.57812 16.5201 2.57812C21.7743 2.57812 26.0489 6.85266 26.0489 12.1068V15.1273H17.8951V22.7896H31.1283V17.7054H33.0402Z" fill="#ED6D09"/>
</svg>
