<svg width="44" height="44" viewBox="0 0 44 44" fill="none" xmlns="http://www.w3.org/2000/svg">
<g clip-path="url(#clip0_221_322)">
<path d="M42.7109 28.5312H38.6719V44H42.7109C43.4228 44 44 43.4228 44 42.7109V29.8203C44 29.1083 43.4228 28.5312 42.7109 28.5312Z" fill="#ED6D09"/>
<path d="M30.9375 28.5312H36.0938V44H30.9375V28.5312Z" fill="#ED6D09"/>
<path d="M15.4688 1.28906C15.4688 0.577156 14.8916 0 14.1797 0H1.28906C0.57707 0 0 0.577242 0 1.28906V5.24219H15.4688V1.28906Z" fill="#ED6D09"/>
<path d="M0 7.82031H15.4688V13.0625H0V7.82031Z" fill="#ED6D09"/>
<path d="M37.8142 15.3009L28.6991 6.18585C28.1957 5.68243 27.3796 5.68243 26.8761 6.18585L24.1416 8.92039L35.0797 19.8585L37.8141 17.124C38.3175 16.6206 38.3175 15.8043 37.8142 15.3009Z" fill="#ED6D09"/>
<path d="M13.2002 19.8588L16.8457 16.2134L27.7821 27.1498L24.1366 30.7952L13.2002 19.8588Z" fill="#ED6D09"/>
<path d="M18.6689 14.3911L22.3144 10.7456L33.2508 21.682L29.6054 25.3275L18.6689 14.3911Z" fill="#ED6D09"/>
<path d="M13.2035 41.7346L22.3186 32.6196L11.3806 21.6815L2.26533 30.7966C-0.755111 33.817 -0.755111 38.7141 2.26533 41.7345C5.28578 44.7551 10.183 44.7551 13.2035 41.7346ZM7.7344 34.4426C8.2379 33.9391 9.05397 33.9393 9.55739 34.4426C10.0608 34.946 10.0609 35.7621 9.55739 36.2657C9.05397 36.7691 8.23782 36.7691 7.7344 36.2657C7.23106 35.7623 7.23106 34.9459 7.7344 34.4426Z" fill="#ED6D09"/>
<path d="M28.359 30.2244C28.1011 30.4823 22.9448 35.6382 23.2027 35.3803V44H28.359V30.2244Z" fill="#ED6D09"/>
<path d="M15.0261 43.5569C14.8595 43.7237 14.6631 43.8461 14.4873 44H20.6255V37.9582L15.0261 43.5569Z" fill="#ED6D09"/>
<path d="M13.7756 15.6406H0V20.7969H8.6197C9.61984 19.7965 14.0562 15.36 13.7756 15.6406Z" fill="#ED6D09"/>
<path d="M6.04192 23.375H0V29.5132C0.153914 29.3374 0.276289 29.1411 0.443094 28.9743L6.04192 23.375Z" fill="#ED6D09"/>
</g>
<defs>
<clipPath id="clip0_221_322">
<rect width="44" height="44" fill="white"/>
</clipPath>
</defs>
</svg>
