<svg width="44" height="44" viewBox="0 0 44 44" fill="none" xmlns="http://www.w3.org/2000/svg">
<path d="M38.2596 18.7344C39.2633 17.7581 39.614 16.3213 39.1808 14.9875C38.7546 13.6607 37.6202 12.705 36.2383 12.5057L29.8446 11.5775C29.1021 11.4675 28.4627 11.0001 28.1327 10.3332L25.2727 4.53754C24.6539 3.28628 23.4027 2.50256 22.0002 2.50256C20.5977 2.50256 19.3465 3.28628 18.7277 4.53754L15.8677 10.3332C15.5377 11.0001 14.8983 11.4675 14.1558 11.5775L7.76206 12.5057C6.38022 12.705 5.24583 13.6607 4.81958 14.9875C4.38645 16.3213 4.73709 17.7581 5.74081 18.7344L10.3677 23.2375C10.9039 23.7601 11.1446 24.5163 11.0208 25.2519L9.9277 31.6182C9.69393 33.0001 10.244 34.3682 11.3783 35.1932C12.5127 36.0113 13.984 36.1213 15.2283 35.4682L20.9415 32.4638C21.6014 32.1132 22.399 32.1132 23.0589 32.4638L28.7721 35.4682C29.3152 35.7501 29.8996 35.8944 30.4771 35.8944C31.2333 35.8944 31.9827 35.6538 32.6221 35.1932C33.7564 34.3682 34.3065 33.0001 34.0727 31.6182L32.9796 25.2519C32.8558 24.5163 33.0965 23.7601 33.6327 23.2375L38.2596 18.7344Z" fill="#ED6D09"/>
<path d="M42.4321 26.3895L35.7763 24.2286C35.4154 24.1111 35.0274 24.3099 34.9102 24.6704C34.793 25.0313 34.9908 25.4193 35.352 25.5365L42.0078 27.6973C42.0783 27.7202 42.1498 27.7313 42.2199 27.7313C42.51 27.7313 42.7795 27.5463 42.8739 27.2556C42.991 26.8947 42.7933 26.5066 42.4321 26.3895Z" fill="#ED6D09"/>
<path d="M30.2495 9.80791C30.4623 9.80791 30.6718 9.70955 30.8064 9.52458L34.8578 3.94637C35.0811 3.63887 35.0129 3.20919 34.7058 2.98595C34.3983 2.76271 33.9689 2.83187 33.7454 3.13802L29.6939 8.71624C29.4706 9.02373 29.5388 9.45342 29.8459 9.67665C29.9681 9.76528 30.1095 9.80791 30.2495 9.80791Z" fill="#ED6D09"/>
<path d="M13.7505 9.80791C13.8905 9.80791 14.0318 9.76527 14.154 9.67665C14.4612 9.45341 14.5293 9.02373 14.3061 8.71623L10.2546 3.13802C10.0314 2.83153 9.60236 2.76237 9.29419 2.98595C8.98703 3.20918 8.91888 3.63887 9.14212 3.94636L13.1936 9.52458C13.3282 9.70955 13.5377 9.80791 13.7505 9.80791Z" fill="#ED6D09"/>
<path d="M22.6875 41.9375V34.8446C22.6875 34.4649 22.3797 34.1571 22 34.1571C21.6203 34.1571 21.3125 34.4649 21.3125 34.8446V41.9375C21.3125 42.3171 21.6203 42.625 22 42.625C22.3797 42.625 22.6875 42.3171 22.6875 41.9375Z" fill="#ED6D09"/>
<path d="M1.99211 27.6973L8.64791 25.5365C9.00911 25.4193 9.20684 25.0313 9.08968 24.6704C8.97286 24.3099 8.58614 24.1111 8.22359 24.2286L1.5678 26.3895C1.20659 26.5066 1.00887 26.8947 1.12602 27.2556C1.22035 27.5463 1.48992 27.7313 1.77996 27.7313C1.85012 27.7313 1.92162 27.7202 1.99211 27.6973Z" fill="#ED6D09"/>
</svg>
