<svg width="44" height="44" viewBox="0 0 44 44" fill="none" xmlns="http://www.w3.org/2000/svg">
<g clip-path="url(#clip0_187_1030)">
<path d="M44 0.478306L43.5218 0L38.9265 1.76155C28.0289 5.93896 15.9713 5.93896 5.07363 1.76155L0.47822 0L0 0.47822L1.76155 5.07354C5.93896 15.9712 5.93896 28.0287 1.76155 38.9264L0 43.5218L0.47822 44L5.07354 42.2384C15.9711 38.061 28.0287 38.061 38.9264 42.2384L43.5218 44L44 43.5218C37.0917 30.0055 37.0917 13.9945 44 0.478306ZM18.1176 31.0588V33.6471H10.3529V25.8824H12.9412V29.2287L18.4967 23.6731L20.3269 25.5033L14.7713 31.0588H18.1176ZM18.4967 20.3268L12.9412 14.7713V18.1176H10.3529V10.3975L18.1102 10.3529L18.1251 12.9412L14.7905 12.9603L20.3269 18.4967L18.4967 20.3268ZM33.6471 33.6471H25.8824V31.0588H29.2287L23.6731 25.5033L25.5033 23.6731L31.0588 29.2287V25.8824H33.6471V33.6471ZM33.6471 18.1176H31.0588V14.7713L25.5033 20.3269L23.6731 18.4967L29.2095 12.9603L25.8749 12.9412L25.8898 10.3529L33.6471 10.3975V18.1176Z" fill="#ED6D09"/>
</g>
<defs>
<clipPath id="clip0_187_1030">
<rect width="44" height="44" fill="white"/>
</clipPath>
</defs>
</svg>
