<svg width="40" height="40" viewBox="0 0 40 40" fill="none" xmlns="http://www.w3.org/2000/svg">
<path d="M38.125 19.7563H36.9375C36.95 19.5375 36.9688 19.325 36.9688 19.1063C36.9681 15.5743 35.9203 12.1218 33.9576 9.1853C31.995 6.24882 29.2057 3.96022 25.9424 2.60887C22.6792 1.25753 19.0885 0.904116 15.6244 1.59332C12.1603 2.28253 8.97839 3.98341 6.4809 6.4809C3.98341 8.97839 2.28253 12.1603 1.59332 15.6244C0.904116 19.0885 1.25753 22.6792 2.60887 25.9424C3.96022 29.2057 6.24882 31.995 9.1853 33.9576C12.1218 35.9203 15.5743 36.9681 19.1063 36.9688C21.1022 36.9738 23.0846 36.6399 24.9688 35.9813V38.125C24.9692 38.2357 24.9991 38.3443 25.0553 38.4397C25.1115 38.5351 25.1921 38.6139 25.2887 38.6679C25.3853 38.7219 25.4946 38.7493 25.6053 38.7473C25.716 38.7452 25.8242 38.7138 25.9188 38.6563L31.8563 35.0375L37.8 38.6563C37.8974 38.7174 38.01 38.7499 38.125 38.75C38.2326 38.7513 38.3385 38.7232 38.4313 38.6688C38.5272 38.6138 38.6072 38.5348 38.6631 38.4394C38.719 38.344 38.749 38.2356 38.75 38.125V20.3813C38.75 20.2155 38.6842 20.0565 38.5669 19.9393C38.4497 19.8221 38.2908 19.7563 38.125 19.7563ZM24.9688 34.65C23.0962 35.361 21.1093 35.7233 19.1063 35.7188C15.8215 35.7181 12.6107 34.7436 9.87976 32.9183C7.14884 31.093 5.02046 28.4989 3.76372 25.4641C2.50699 22.4292 2.17833 19.0899 2.81931 15.8683C3.46028 12.6467 5.04211 9.68746 7.36478 7.36478C9.68746 5.04211 12.6467 3.46028 15.8683 2.8193C19.0899 2.17833 22.4292 2.50699 25.4641 3.76372C28.4989 5.02046 31.093 7.14884 32.9183 9.87976C34.7436 12.6107 35.7181 15.8215 35.7188 19.1063C35.7188 19.325 35.7 19.5375 35.6875 19.7563H33.2875C33.3 19.55 33.3063 19.3375 33.3063 19.1063C33.3075 16.0383 32.3155 13.0524 30.4785 10.5951C28.6416 8.1378 26.0585 6.34125 23.1157 5.47413C20.1728 4.60701 17.0282 4.71592 14.1524 5.78459C11.2766 6.85325 8.82398 8.82423 7.16149 11.4027C5.499 13.9812 4.71594 17.0286 4.92945 20.0892C5.14296 23.1497 6.34155 26.0589 8.34596 28.3815C10.3504 30.7042 13.0529 32.3156 16.0492 32.9746C19.0456 33.6336 22.1748 33.3048 24.9688 32.0375V34.65ZM17.75 24.975C17.5828 25.1448 17.3833 25.2793 17.1632 25.3705C16.9432 25.4618 16.707 25.5079 16.4688 25.5063C16.2307 25.5067 15.9949 25.46 15.775 25.3689C15.5551 25.2777 15.3554 25.1438 15.1875 24.975L9.48126 19.2688C9.31149 19.1016 9.177 18.9021 9.08575 18.682C8.9945 18.4619 8.94834 18.2257 8.95001 17.9875C8.95016 17.6291 9.05654 17.2789 9.25571 16.9809C9.45488 16.683 9.7379 16.4508 10.069 16.3137C10.4001 16.1766 10.7644 16.1407 11.1159 16.2106C11.4674 16.2804 11.7903 16.4529 12.0438 16.7063L16.4688 21.1313L26.025 11.575C26.3707 11.2441 26.8308 11.0594 27.3094 11.0594C27.7879 11.0594 28.248 11.2441 28.5938 11.575C28.7624 11.743 28.8961 11.9427 28.9873 12.1626C29.0784 12.3825 29.1252 12.6182 29.125 12.8563C29.1231 13.3365 28.9323 13.7968 28.5938 14.1375L17.75 24.975ZM37.5 37.0125L32.1813 33.775C32.0839 33.7137 31.9713 33.6812 31.8563 33.6812C31.7412 33.6812 31.6286 33.7137 31.5313 33.775L26.2188 37.0125V21.0063H37.5V37.0125Z" fill="white"/>
</svg>
