<svg width="90" height="60" viewBox="0 0 90 60" fill="none" xmlns="http://www.w3.org/2000/svg">
<g clip-path="url(#clip0_226_439)">
<mask id="mask0_226_439" style="mask-type:luminance" maskUnits="userSpaceOnUse" x="0" y="-1" width="90" height="61">
<path d="M0 60H90.0002V-0.000629425H0V60Z" fill="white"/>
</mask>
<g mask="url(#mask0_226_439)">
<path d="M74.9578 60.0004H15.0434C6.76912 60.0004 0 54.1796 0 47.0654V12.9347C0 5.82052 6.76912 -0.000263214 15.0434 -0.000263214H74.9578C83.2321 -0.000263214 90.0002 5.82052 90.0002 12.9347V47.0654C90.0002 54.1796 83.2321 60.0004 74.9578 60.0004Z" fill="black"/>
<path d="M45.027 33.025C41.0817 33.025 38.5404 31.4379 38.5404 31.4379V13.1444C38.5404 11.619 40.6401 10.5712 42.4351 10.3781C44.3588 10.1724 53.2212 9.02309 53.2212 21.0136C53.2212 31.8195 47.2479 33.025 45.027 33.025ZM16.0269 31.8947C13.4139 31.8947 12.3324 30.9176 12.3324 30.9176V19.8897C12.3324 18.9498 13.1209 18.3044 14.3098 18.1866C15.5842 18.0597 21.3762 17.2639 21.3762 24.6482C21.3762 31.5621 17.8399 31.8947 16.0269 31.8947ZM75.5998 19.5462C79.1962 18.6316 82.8538 19.5779 85.7566 21.6499V15.0016C76.3745 13.7227 71.4584 14.5928 67.706 16.595C64.663 18.2673 63.3707 20.5486 63.3707 20.5486C63.3707 20.5486 63.3032 20.6701 63.1915 20.8876C62.6993 4.06247 50.7273 5.52808 36.4397 5.53171C32.4343 5.53262 28.393 5.53171 28.393 5.53171V20.0302C26.0193 14.029 18.6873 14.6744 10.841 14.6744C7.99924 14.6744 4.24365 14.6753 4.24365 14.6753V45.3481H15.0498C13.2474 44.8097 12.3324 43.4647 12.3324 41.5123V33.0857L15.4503 35.7659C16.8248 36.055 18.0275 36.0233 18.0275 36.0233C21.0115 35.8819 26.3745 34.8876 28.393 29.6877V54.5044H41.2504C39.4532 53.9669 38.5404 52.6481 38.5404 50.7012V34.0374L43.4143 38.2131C44.988 38.6989 46.1464 38.7796 47.4745 38.7279C51.2259 38.5258 57.6461 37.1635 61.0086 31.3328C61.2858 36.8136 63.3738 42.3127 69.8405 44.4735C72.6875 45.4741 75.9234 45.7524 79.2879 45.5303C81.4867 45.4741 83.6201 45.3064 85.7566 44.9747V29.9496L75.9086 29.9514C77.7121 30.4907 78.626 31.766 78.626 33.7184V40.5615C76.3808 41.1652 73.3462 40.5697 71.6524 38.6871C69.5148 36.3097 69.1279 29.6179 70.0355 25.0533C70.5519 22.7729 72.8234 20.2513 75.5998 19.5462Z" fill="white"/>
</g>
</g>
<defs>
<clipPath id="clip0_226_439">
<rect width="90" height="60" fill="white"/>
</clipPath>
</defs>
</svg>
