<svg width="90" height="60" viewBox="0 0 90 60" fill="none" xmlns="http://www.w3.org/2000/svg">
<g clip-path="url(#clip0_226_450)">
<path d="M0 43.6787H6.42857C7.7459 43.6046 9.06844 43.6955 10.3571 43.9485C11.02 44.1065 11.6302 44.4035 12.1361 44.8145C12.642 45.2254 13.0287 45.7383 13.2636 46.3096C13.4985 46.881 13.5747 47.494 13.4857 48.097C13.3966 48.6999 13.145 49.275 12.7521 49.7736C12.203 50.4048 11.3955 50.8193 10.5042 50.9274C11.6159 51.0902 12.6218 51.6079 13.3321 52.3828C14.0423 53.1577 14.4077 54.1361 14.3592 55.1334C14.4031 56.039 14.1133 56.9328 13.5334 57.6797C12.9536 58.4267 12.1153 58.9863 11.145 59.2742C9.82007 59.6348 8.42951 59.7675 7.04832 59.665H0V43.6787ZM3.35084 46.1259V50.1086H4.4958C5.44118 50.1086 6.13445 50.1086 6.59664 50.1086C7.38067 50.1604 8.16769 50.0522 8.89706 49.7922C9.23281 49.6396 9.51597 49.4098 9.71681 49.1268C9.91764 48.8438 10.0287 48.5181 10.0384 48.184C10.0481 47.8498 9.95597 47.5195 9.77177 47.2278C9.58757 46.936 9.31808 46.6936 8.9916 46.526C8.27731 46.1725 7.94118 46.1445 5.46218 46.1259H3.35084ZM3.35084 52.3511V57.0782H6.67017C8.66597 57.0782 9.20168 57.0782 10.0735 56.5385C10.3433 56.3322 10.5564 56.0741 10.6965 55.7838C10.8367 55.4936 10.9002 55.1788 10.8824 54.8635C10.8891 54.4455 10.7771 54.0328 10.5567 53.6631C9.7374 52.3697 7.84664 52.3697 6.70168 52.3697L3.35084 52.3511Z" fill="black"/>
<path d="M28.54 57.1246C27.8478 58.0221 26.9161 58.7542 25.8275 59.2559C24.739 59.7575 23.5274 60.0131 22.3005 59.9999C18.9601 59.9999 15.7354 58.1389 15.7354 53.9609C15.7354 50.155 18.498 48.0055 22.1009 48.0055C23.0736 47.9538 24.0453 48.1212 24.9251 48.4922C25.805 48.8632 26.5644 49.4257 27.1324 50.1271C28.0165 51.4665 28.4671 52.9958 28.4349 54.5471H18.9812C19.0615 55.3386 19.485 56.0716 20.1628 56.5922C20.8406 57.1128 21.7198 57.3804 22.6156 57.3387C23.2693 57.3658 23.9195 57.2409 24.5019 56.9765C25.0842 56.712 25.5782 56.3172 25.9349 55.8312L28.54 57.1246ZM25.0631 52.5558C25.0565 52.2312 24.9764 51.911 24.8277 51.6143C24.679 51.3175 24.4646 51.0502 24.1973 50.8281C23.9299 50.606 23.615 50.4337 23.2712 50.3213C22.9273 50.2089 22.5616 50.1587 22.1954 50.1736C21.4267 50.1411 20.6728 50.3693 20.0873 50.8119C19.5018 51.2545 19.1288 51.8781 19.0442 52.5558H25.0631Z" fill="black"/>
<path d="M39.1073 52.3512C38.9302 51.7943 38.5517 51.3042 38.0299 50.9562C37.5081 50.6083 36.8718 50.4217 36.2186 50.425C34.4539 50.425 33.0674 51.6719 33.0674 53.9331C33.0674 55.9709 34.2543 57.469 36.2817 57.469C36.9965 57.4495 37.6842 57.222 38.2386 56.8218C38.7929 56.4215 39.1831 55.8707 39.3489 55.2544L42.0169 56.4734C41.5928 57.5179 40.8112 58.4191 39.7812 59.0513C38.7512 59.6835 37.5241 60.0152 36.2711 60.0001C32.7207 60.0001 29.9686 57.5807 29.9686 54.0075C29.926 53.2344 30.0609 52.4617 30.3651 51.736C30.6692 51.0104 31.1364 50.347 31.7384 49.786C32.3403 49.2249 33.0645 48.7779 33.867 48.4718C34.6696 48.1658 35.5339 48.0072 36.4077 48.0056C37.5649 48.0027 38.6973 48.3022 39.6633 48.8666C40.6292 49.431 41.3858 50.2353 41.8384 51.1787L39.1073 52.3512Z" fill="black"/>
<path d="M46.628 43.6787V52.6675L51.6175 48.3871H55.5251L50.6406 52.6675L56.0083 59.6651H52.2793L48.4137 54.5937L46.628 56.157V59.6651H43.5923V43.6787H46.628Z" fill="black"/>
<path d="M68.7082 57.1247C68.019 58.0226 67.0893 58.7553 66.0023 59.257C64.9153 59.7588 63.7048 60.0141 62.4792 60C59.1283 60 55.9141 58.1389 55.9141 53.9609C55.9141 50.1551 58.6662 48.0056 62.2691 48.0056C63.2432 47.9548 64.2159 48.1227 65.0973 48.4935C65.9786 48.8644 66.7401 49.4263 67.3111 50.1271C68.1858 51.47 68.6357 52.9969 68.6136 54.5471H59.1599C59.2376 55.3378 59.6589 56.0708 60.335 56.5916C61.0111 57.1124 61.8891 57.3803 62.7838 57.3387C63.4378 57.3677 64.0889 57.2437 64.6715 56.979C65.2542 56.7144 65.748 56.3186 66.1031 55.8312L68.7082 57.1247ZM65.2418 52.5558C65.2352 52.2312 65.1551 51.911 65.0064 51.6143C64.8577 51.3176 64.6433 51.0502 64.376 50.8282C64.1086 50.6061 63.7937 50.4337 63.4499 50.3213C63.1061 50.2089 62.7403 50.1587 62.3741 50.1737C61.6054 50.1411 60.8515 50.3694 60.266 50.812C59.6806 51.2545 59.3075 51.8781 59.2229 52.5558H65.2418Z" fill="black"/>
<path d="M73.6868 48.3871V49.9969C74.0649 49.4107 74.9158 48.0707 77.7729 48.1358V50.9274C76.7978 50.892 75.8348 51.1296 75.0208 51.6067C73.7183 52.5372 73.6868 53.6445 73.6868 55.5242V59.7115H70.7246V48.3871H73.6868Z" fill="black"/>
<path d="M80.3993 56.3151C80.835 56.7911 81.391 57.1696 82.0223 57.4202C82.6537 57.6707 83.3427 57.7862 84.0337 57.7574C85.7984 57.7574 86.5653 56.9944 86.5653 56.4267C86.5653 55.7009 85.6514 55.4962 85.2417 55.4962C84.8321 55.4962 82.7102 55.0682 82.2585 54.9565C79.2018 54.3238 78.6451 52.7605 78.6451 51.7369C78.6451 49.82 80.6199 48.0148 84.1178 48.0148C85.6123 47.9805 87.0814 48.3612 88.3195 49.1035C88.8111 49.3789 89.2506 49.7212 89.622 50.1178L87.5001 51.8951C87.1776 51.3379 86.6767 50.8773 86.0601 50.5711C85.4435 50.2649 84.7386 50.1266 84.0337 50.1736C82.5737 50.1736 81.9329 50.7413 81.9329 51.3275C81.9329 52.1463 82.8783 52.3697 84.5064 52.6209C87.1745 53.049 87.9098 53.1699 88.7081 53.7282C89.1131 54.0174 89.4401 54.383 89.6654 54.7983C89.8907 55.2136 90.0087 55.6682 90.0106 56.129C90.0106 57.897 88.2249 59.9999 84.2648 59.9999C82.0036 60.0576 79.805 59.3373 78.1304 57.99L80.3993 56.3151Z" fill="black"/>
<path d="M67.0169 39.5658C67.0169 34.3141 64.6619 29.2775 60.4699 25.564C56.2779 21.8505 50.5923 19.7643 44.664 19.7643C38.7356 19.7643 33.05 21.8505 28.8581 25.564C24.6661 29.2775 22.311 34.3141 22.311 39.5658H29.7795C29.7795 37.8342 30.1645 36.1196 30.9125 34.5199C31.6605 32.9202 32.7569 31.4666 34.1391 30.2422C35.5212 29.0178 37.1621 28.0466 38.9679 27.384C40.7738 26.7213 42.7093 26.3803 44.664 26.3803C46.6186 26.3803 48.5541 26.7213 50.36 27.384C52.1659 28.0466 53.8067 29.0178 55.1889 30.2422C56.571 31.4666 57.6674 32.9202 58.4154 34.5199C59.1634 36.1196 59.5484 37.8342 59.5484 39.5658H67.0169Z" fill="#008CFF"/>
<path d="M89.2857 39.5657C88.9297 29.2872 84.0703 19.5352 75.7369 12.3762C67.4036 5.21708 56.2513 1.21338 44.6429 1.21338C33.0344 1.21338 21.8821 5.21708 13.5488 12.3762C5.21548 19.5352 0.356004 29.2872 0 39.5657H7.55252C7.55252 30.8467 11.4625 22.4847 18.4222 16.3194C25.3819 10.1541 34.8213 6.69043 44.6639 6.69043C54.5064 6.69043 63.9458 10.1541 70.9056 16.3194C77.8653 22.4847 81.7752 30.8467 81.7752 39.5657H89.2857Z" fill="#FF0000"/>
<path d="M44.6641 13.1576C48.5789 13.1576 52.4554 13.8406 56.0722 15.1678C59.6891 16.4949 62.9754 18.4401 65.7436 20.8923C68.5118 23.3446 70.7076 26.2558 72.2058 29.4598C73.7039 32.6638 74.475 36.0978 74.475 39.5657H81.7754C81.7754 30.8467 77.8655 22.4847 70.9058 16.3194C63.946 10.1541 54.5066 6.69043 44.6641 6.69043C34.8215 6.69043 25.3821 10.1541 18.4224 16.3194C11.4627 22.4847 7.55273 30.8467 7.55273 39.5657H14.9057C14.9057 32.5699 18.0392 25.8599 23.6185 20.9088C29.1978 15.9576 36.7668 13.1699 44.6641 13.1576Z" fill="#FFF500"/>
<path d="M74.4749 39.5658C74.4749 32.5619 71.3341 25.8449 65.7435 20.8924C60.1528 15.9399 52.5703 13.1576 44.664 13.1576C36.7576 13.1576 29.1751 15.9399 23.5844 20.8924C17.9938 25.8449 14.853 32.5619 14.853 39.5658H22.311C22.311 34.3141 24.666 29.2775 28.858 25.564C33.05 21.8505 38.7356 19.7643 44.664 19.7643C50.5923 19.7643 56.2779 21.8505 60.4699 25.564C64.6619 29.2775 67.0169 34.3141 67.0169 39.5658H74.4749Z" fill="#78C800"/>
</g>
<defs>
<clipPath id="clip0_226_450">
<rect width="90" height="60" fill="white"/>
</clipPath>
</defs>
</svg>
